<?xml version="1.0" encoding="UTF-8"?>
<svg width="18.195mm" height="31.105mm" version="1.1" viewBox="0 0 64.471436 110.2133" xmlns="http://www.w3.org/2000/svg" xmlns:xlink="http://www.w3.org/1999/xlink">
 <defs>
  <pattern id="bt" xlink:href="#bu" patternTransform="matrix(.093841 .064507 -.25952 .37753 0 0)"/>
  <pattern id="bu" width="30.066020" height="5.1805778" patternUnits="userSpaceOnUse">
   <path d="m7.597 0.061c-2.518-0.248-4.941 0.241-7.607 1.727v1.273c2.783-1.63 5.183-2.009 7.482-1.781 2.298 0.228 4.497 1.081 6.781 1.938 4.567 1.713 9.551 3.458 15.813-0.157l-4e-3 -1.273c-6.44 3.709-10.816 1.982-15.371 0.273-2.278-0.854-4.576-1.75-7.094-2z"/>
  </pattern>
  <pattern id="bs" patternTransform="scale(.54245 .56012)" xlink:href="#a"/>
  <pattern id="br" patternTransform="scale(.48941)" xlink:href="#a"/>
  <pattern id="bq" patternTransform="scale(.54245 .61316)" xlink:href="#a"/>
  <pattern id="bp" patternTransform="matrix(-.34399 .41943 -1.4446 -1.1847 0 0)" xlink:href="#b"/>
  <pattern id="bo" patternTransform="matrix(.3226 .4361 -1.0756 .79568 0 0)" xlink:href="#b"/>
  <pattern id="bn" patternTransform="scale(.5778 .66619)" xlink:href="#a"/>
  <pattern id="bm" patternTransform="scale(.5778 .59548)" xlink:href="#a"/>
  <pattern id="bl" patternTransform="scale(.59548 .61316)" xlink:href="#a"/>
  <pattern id="bk" patternTransform="scale(.56012 .61316)" xlink:href="#a"/>
  <pattern id="bj" patternTransform="scale(.56012 .66619)" xlink:href="#a"/>
  <pattern id="bi" patternTransform="scale(.47174 .56012)" xlink:href="#a"/>
  <pattern id="bh" patternTransform="scale(.56012 .66619)" xlink:href="#a"/>
  <pattern id="bg" patternTransform="scale(.63084 .64851)" xlink:href="#a"/>
  <pattern id="bf" patternTransform="scale(.54245 .61316)" xlink:href="#a"/>
  <pattern id="be" patternTransform="scale(.5778 .63084)" xlink:href="#a"/>
  <pattern id="bd" patternTransform="scale(.66619 .63084)" xlink:href="#a"/>
  <pattern id="bc" patternTransform="scale(.61316 .64851)" xlink:href="#a"/>
  <pattern id="bb" patternTransform="scale(.63084 .59548)" xlink:href="#a"/>
  <pattern id="ba" patternTransform="scale(.59548 .63084)" xlink:href="#a"/>
  <pattern id="az" patternTransform="scale(.56012 .64851)" xlink:href="#a"/>
  <pattern id="ay" patternTransform="scale(.54245 .63084)" xlink:href="#a"/>
  <pattern id="ax" patternTransform="scale(.52477 .63084)" xlink:href="#a"/>
  <pattern id="aw" patternTransform="scale(.61316 .56012)" xlink:href="#a"/>
  <pattern id="cp" patternTransform="scale(.47174 .59548)" xlink:href="#a"/>
  <pattern id="co" patternTransform="scale(.5778 .56012)" xlink:href="#a"/>
  <pattern id="cn" patternTransform="scale(.56012 .59548)" xlink:href="#a"/>
  <pattern id="cm" patternTransform="scale(.59548)" xlink:href="#a"/>
  <pattern id="cl" patternTransform="scale(.50709 .56012)" xlink:href="#a"/>
  <pattern id="ck" patternTransform="scale(.59548 .68387)" xlink:href="#a"/>
  <pattern id="cj" patternTransform="scale(.54245 .61316)" xlink:href="#a"/>
  <pattern id="ci" patternTransform="scale(.53321 .62803)" xlink:href="#a"/>
  <pattern id="ch" patternTransform="scale(.5375 .55)" xlink:href="#a"/>
  <pattern id="cg" patternTransform="scale(.5125 .5)" xlink:href="#a"/>
  <pattern id="cf" patternTransform="scale(.55 .525)" xlink:href="#a"/>
  <pattern id="ce" patternTransform="scale(.5625 .5)" xlink:href="#a"/>
  <pattern id="cd" patternTransform="scale(.5375 .5125)" xlink:href="#a"/>
  <pattern id="cc" patternTransform="scale(.4875)" xlink:href="#a"/>
  <pattern id="cb" patternTransform="scale(.55 .5375)" xlink:href="#a"/>
  <pattern id="ca" patternTransform="scale(.4875 .6125)" xlink:href="#a"/>
  <pattern id="bz" patternTransform="scale(.42754 .54245)" xlink:href="#a"/>
  <pattern id="by" patternTransform="scale(.54245 .51593)" xlink:href="#a"/>
  <pattern id="bx" patternTransform="scale(.47174 .52477)" xlink:href="#a"/>
  <pattern id="bw" patternTransform="scale(.475 .55)" xlink:href="#a"/>
  <pattern id="a" width="10" height="10" patternTransform="translate(0) scale(10)" patternUnits="userSpaceOnUse">
   <circle cx="2.567" cy=".81" r=".45"/>
   <circle cx="3.048" cy="2.33" r=".45"/>
   <circle cx="4.418" cy="2.415" r=".45"/>
   <circle cx="1.844" cy="3.029" r=".45"/>
   <circle cx="6.08" cy="1.363" r=".45"/>
   <circle cx="5.819" cy="4.413" r=".45"/>
   <circle cx="4.305" cy="4.048" r=".45"/>
   <circle cx="5.541" cy="3.045" r=".45"/>
   <circle cx="4.785" cy="5.527" r=".45"/>
   <circle cx="2.667" cy="5.184" r=".45"/>
   <circle cx="7.965" cy="1.448" r=".45"/>
   <circle cx="7.047" cy="5.049" r=".45"/>
   <circle cx="4.34" cy=".895" r=".45"/>
   <circle cx="7.125" cy=".34" r=".45"/>
   <circle cx="9.553" cy="1.049" r=".45"/>
   <circle cx="7.006" cy="2.689" r=".45"/>
   <circle cx="8.909" cy="2.689" r=".45"/>
   <circle cx="9.315" cy="4.407" r=".45"/>
   <circle cx="7.82" cy="3.87" r=".45"/>
   <circle cx="8.27" cy="5.948" r=".45"/>
   <circle cx="7.973" cy="7.428" r=".45"/>
   <circle cx="9.342" cy="8.072" r=".45"/>
   <circle cx="8.206" cy="9.315" r=".45"/>
   <circle cx="9.682" cy="9.475" r=".45"/>
   <circle cx="9.688" cy="6.186" r=".45"/>
   <circle cx="3.379" cy="6.296" r=".45"/>
   <circle cx="2.871" cy="8.204" r=".45"/>
   <circle cx="4.59" cy="8.719" r=".45"/>
   <circle cx="3.181" cy="9.671" r=".45"/>
   <circle cx="5.734" cy="7.315" r=".45"/>
   <circle cx="6.707" cy="6.513" r=".45"/>
   <circle cx="5.73" cy="9.67" r=".45"/>
   <circle cx="6.535" cy="8.373" r=".45"/>
   <circle cx="4.37" cy="7.154" r=".45"/>
   <circle cx=".622" cy="7.25" r=".45"/>
   <circle cx=".831" cy="5.679" r=".45"/>
   <circle cx="1.257" cy="8.519" r=".45"/>
   <circle cx="1.989" cy="6.877" r=".45"/>
   <circle cx=".374" cy="3.181" r=".45"/>
   <circle cx="1.166" cy="1.664" r=".45"/>
   <circle cx="1.151" cy=".093" r=".45"/>
   <circle cx="1.151" cy="10.093" r=".45"/>
   <circle cx="1.302" cy="4.451" r=".45"/>
   <circle cx="3.047" cy="3.763" r=".45"/>
  </pattern>
  <pattern id="bv" patternTransform="matrix(-.096128 -.57081 2.3713 -.39934 74 26.25)" xlink:href="#b"/>
  <pattern id="b" width="2" height="1" patternTransform="translate(0) scale(10)" patternUnits="userSpaceOnUse">
   <rect y="-.5" width="1" height="2"/>
  </pattern>
 </defs>
 <g transform="translate(-17.345 2.2214)" fill-rule="evenodd">
  <path d="m59.938 11.987c-0.84103-0.18206-1.6774 1.2078-2.0625 1.9375 0 0-0.35314 3.6274-0.5625 5.4375-0.41506 3.5886-0.41208 7.2682-1.375 10.75-0.48491 1.7534-1.3695 3.3751-2.1875 5-0.96093 1.9088-3.1875 5.5625-3.1875 5.5625s3.1195-3.1225 4.375-4.875c1.246-1.7392 2.1417-3.7438 2.6875-5.8125 0.96975-3.6754 1.3618-7.5121 1.4375-11.312 0.04307-2.161 0.875-6.6875 0.875-6.6875z" fill="#620f00"/>
  <path d="m21.213 72.977c0.72768-2.0343 0.66659-3.1065 0.97227-4.5078 0.05991-3.0956-0.45942-5.0326 0.44194-9.8111 1.5499-3.8757 3.3091-7.5944 6.7175-10.076 2.2468-2.4512 6.0258-3.115 9.6343-3.9775 4.4855-0.73567 6.4409-1.7876 9.1924-2.74 1.7383-0.37438 3.4766-2.4527 5.2149-3.8891 2.2448-2.1527 2.2807-3.569 3.2704-5.3033l1.8562-6.8059 0.61872-6.5407c0.0334-1.3985-0.03898-2.4268 0.44194-5.3917 0.26516-1.2925 0.53033-1.9678 0.7955-2.5633-0.85442 0.12778-1.7088-0.070918-2.5633-0.88388-1.5505-1.1196-1.7805-2.2392-1.9445-3.3588l4.5962 0.70711c0.35616-0.66435 0.97382-0.62647 2.0329-0.35355 0.61157 0.010112-0.25532-2.3046-0.97227-4.0659 0.3544-1.4698 1.3316-0.44823 2.1213-0.17678 0.264-0.74834 0.1673-2.0978 1.7678-0.61872 0.77342 1.5407 0.44262 3.2653 2.4749 4.5962 0.99126-0.35613 1.9792-0.67543 2.74 1.5026l2.9168 2.74c2.2259 0.64898 3.8631 1.6251 3.9775 3.4471l-2.74 2.1213-3.0936-0.70711c-3.0209 1.261-4.5309 0.25555-6.1872-0.53033-0.40225 0.67253-0.59931 1.2425-0.53033 1.6794 2.6503 10.111 2.1301 17.009 1.8562 21.92-2.6011 5.5511-3.1085 7.5377-3.6239 10.076 0.59217 2.1637 1.7227 4.5428 1.2374 6.2756-1.3976 3.0821-2.6382 5.2227-3.8007 6.8943l-2.0329 15.645c0.42936 1.1302 0.98721 2.4531 0.97227 2.9168l-1.149 3.7123c-0.59597 7.1841 0.65466 11.797 1.3258 15.822 1.1813 0.84094 2.275 1.5577 2.2981 3.0936-2.4749 0.0379-4.9497 0.3029-7.4246-0.0884-0.0066-0.97227 0.65898-1.9446 1.591-2.9168l-1.591-4.331c0.61577-2.7739 0.76898-6.2417 0.44194-10.43l-0.7955-5.6569c-0.6629 0.81024-1.3506 1.5957-1.3258 3.0936l-0.17678 10.43 0.61872 1.9445-0.53033 3.0052 1.3258 1.7678c0.57673 0.52193 0.23936 0.86104-0.35355 1.149-1.6106-0.15715-3.5811 0.58524-4.773-0.61872l0.08839-1.0606 1.3258-1.6794-1.149-2.6517c-0.06974-0.84901 0.31626-1.9259 0.70711-3.0052l0.70711-28.726c-4.4386 2.9434-8.0822 1.1169-11.844 0-2.4451 4.714-4.3019 9.4281-5.5685 14.142-0.89883 4.5275-1.3809 8.8699-0.17678 12.463l0.97227 3.0936c-0.99653 3.3857 0.59334 3.4461 1.0607 4.9497 2.1637 1.4713 3.3163 2.8303 3.3588 4.0659-3.2522 0.50471-5.2827 0.1368-6.8943-0.53033l0.53033-2.9168-2.2097-1.2374c-0.7787-6.2588-0.68009-11.64-0.7955-17.236-0.69458 0.8073-1.3914 1.5967-1.8562 4.2426l-0.88388 10.253 0.70711 5.1265 2.1213 2.5633-1.6794 0.70711c-2.0762 0.29273-4.0486 0.37798-5.6569-0.26517-0.89647-1.8449 0.81374-1.952 1.2374-2.9168-0.70351-1.6463-1.2044-3.09-0.97227-3.8007 0.58926-2.5114 1.1785-4.6595 1.7678-8.0433 0.91672-4.1005 0.36433-8.4949 0.17678-12.816l2.5633-5.922 0.44194-8.1317 0.08839-5.6569-2.2981 1.8562-0.88388 6.6291c0.06018 1.9147-0.25661 3.955 0.44194 5.6569-0.40838 2.0161-0.74668 4.0462-2.2981 5.8336-0.15889-1.155-0.1338-2.2535-0.97228-3.182z" fill="#ffc11c" stroke="#f00" stroke-width=".35433"/>
  <path d="m38.375 64.737c-2.347 1.6823-3.7302 3.8768-5.25 6.3125-0.8671 3.0733-1.8023 5.8741-3 7.625l-1 3.625 0.6875 15.5 2.4375 1.875-0.875 2.75c2.1812 0.45487 4.5691 0.56539 7.25 0.1875-0.66674-1.985-1.6714-3.4873-3.5-3.8125l-1.1875-3.0625 0.25-2.75c-1.0816-3.175-2.0897-6.3835-1.375-10.375 1.1487-5.3704 1.573-10.137 5.5625-17.875z" fill="#c6940e" stroke="#f00" stroke-width=".35433"/>
  <g transform="translate(-76.53 -9.5851)" fill="#a70000">
   <path d="m133.65 82.325c0.87493-1.0326 1.2406-1.3947 2.0414-1.9057l-0.51516 7.6524c-0.69381-0.36971-0.39468-0.33488-1.2343-1.1736z"/>
   <path d="m130.87 81.353c0.65396 0.20482 1.108 0.32883 1.6437 0.70174l0.22097 4.5078c-0.6938-0.36971-1.4326-0.7844-2.2097-1.2374z"/>
   <path d="m135.88 26.713c0.69815-1.2094 1.6384-0.37828 2.174 0.52497l0.0884 3.9231c-0.60005 0.63029-0.90134 1.7468-2.7097 1.4188z"/>
   <path d="m139.31 27.063c1.1669 0.57185 1.8259 0.43422 2.3928 0.55622l0.65089 6.2356c-0.74702-0.54555-2.7984-0.51636-2.991-1.6124z"/>
   <path d="m135.31 33.688c1.4482 1.3844 2.2321 3.9342 2.7678 4.8375l-1.6304 1.8606c-0.6938-0.36971-1.1513-0.9719-1.9285-1.4249z"/>
   <path d="m137.06 33.97c0.69815-1.2094 5.0759 0.49672 5.6115 1.4l0.52589 3.8606c-0.6938-0.36971-3.4951-1.0032-4.2722-1.4562z"/>
   <path d="m139.35 39.148c1.7588 0.95612 3.5387 1.1243 4.0744 2.0276l-0.17678 5.3033c-0.6938-0.36971-2.0955-0.69602-2.8726-1.149 1.277-4.1901-0.10707-4.5158-1.025-6.1818z"/>
   <path d="m135.9 43.037c1.0075-1.0326 1.6826-1.9251 2.5718-2.878 1.5578 2.6044 0.95967 4.9915 0.48614 6.8059-1.0032-0.14874-1.6978-0.60763-2.5191-0.7955z"/>
   <path d="m133.96 40.429c0.78654 0.64676 1.2848 0.90335 1.6879 1.2763-1.6118 1.4346-0.30367 3.0458-0.44194 4.3752-1.0474-0.14874-1.9629 0.14367-4.0217-0.13258 1.0454-1.5436 2.553-4.2104 2.7757-5.5189z"/>
   <path d="m136.96 20.984c0.78654 1.0003 0.53352 2.3176 1.0692 3.2208l1.8562 1.6794c-0.29606 0.2932-3.1562-1.0054-3.9333-1.4584 0.0576-1.2868 0.48041-2.2724 1.008-3.4418z"/>
   <path d="m140.06 46.528c1.0517 0.3374 2.4781 0.63819 3.0137 1.5414l-1.1049 4.2426c-0.56121-0.81165-2.0071-2.066-3.1378-2.3423z"/>
   <path d="m130.11 47.324c1.7146-0.28132 3.7155-0.02472 5.0466 0.21561 0.18427 1.0786-0.42633 2.3087-1.37 3.3588-0.49368-0.68991-3.4861-2.6253-4.6404-2.4749z"/>
   <path d="m136.66 47.589c0.83073-0.06035 1.1964 0.28464 1.5553 0.56916-1.0739 3.6106-0.8954 4.299-1.3258 6.4082-0.53889-0.40844-0.99438-1.9215-2.0771-2.2981 0.75474-1.2357 1.4432-2.6261 1.8476-4.6792z"/>
   <path d="m138.56 51.257c1.3611 0.46998 2.3013 1.3895 2.8369 2.2927-1.4589 1.6524-1.8178 4.1849-2.1213 6.7617-0.6938-0.36971-1.1674-1.4473-1.591-2.6517z"/>
   <path d="m128.3 49.445c1.2727 0.24901 2.3897 1.0359 3.3231 1.8066-1.6008 0.86641-2.1456 1.858-3.2704 2.961-0.6938-0.36971-1.6094-2.3754-2.3865-2.8284z"/>
   <path d="m132.46 51.831c0.91912 0.24901 2.3455 1.3895 2.3508 2.2043l-3.1365 3.0463c-0.56122-0.85585-1.0361-0.95804-2.3878-2.2508 0.83771-0.99995 1.9875-1.9999 3.1735-2.9998z"/>
   <path d="m135.73 54.66c0.47718 0.46998 0.62191 0.99174 1.1134 1.453-0.0728 1.9943 0.0362 4.0216-1.2816 5.7894-0.44797-1.0571-1.1648-2.5967-2.4048-3.6422 0.91212-1.342 2.0072-2.9507 2.5731-3.6003z"/>
   <path d="m137.54 60.405c1.4494 1.3539 2.1687 1.6105 2.7044 2.5137 0.76022 1.3965 0.44411 3.0237-0.44194 4.773-0.6938-0.36971-2.8026-3.7896-3.5797-4.2426 0.71281-1.0379 0.73561-1.2975 1.3173-3.044z"/>
   <path d="m124.53 52.22c0.69815-1.2094 1.8884 1.4967 2.424 2.4-1.0644 0.96848-1.9544 2.3643-4.6616 2.0481-0.6938-0.36971-0.49509-2.3469-1.2722-2.7999z"/>
   <path d="m128.03 55.532c1.0732 0.6656 2.0759 1.4342 2.6115 2.3375-1.4976 1.168-3.5388 1.725-5.1616 2.9231-0.4438 0.41154-2.9013-2.8157-2.2722-2.9874 2.7056 0.02005 3.4762-1.2358 4.8223-2.2731z"/>
   <path d="m132.96 59.845c0.63565 0.7906 1.2009 3.0592 1.7365 3.9625-0.37419 1.2053-0.91375 2.3003-1.7866 3.1731-0.6938-0.36971-1.9951-0.6594-2.7722-1.1124 0.10749-1.0152 1.9371-3.906 2.8223-6.0231z"/>
   <path d="m131.59 58.97c0.42504 0.2281 0.66963 0.49672 0.67402 0.71247-1.3664 2.0994-3.459 3.654-4.0991 6.2981-0.22505-0.71346-0.80759-2.8157-1.7097-3.6124z"/>
   <path d="m116.5 55.095c1.1669-0.30315 1.8884-0.28453 2.8303-0.47503 1.0023 0.3303 1.2865 1.4073 1.4321 2.3606-0.81723-0.07696-3.587 2.4271-4.2097 3.1063-0.48574-1.308-1.0521-2.8533-0.0527-4.9919z"/>
   <path d="m121.43 58.095c0.88565 1.5719 2.1071 2.6842 2.6428 3.5875l-3.3804 1.9543c-0.6313-1.0885-2.3076-2.2219-3.4597-2.4249 0.60904-1.1246 1.7697-2.05 4.1973-3.1169z"/>
   <path d="m121.34 65.22c1.1044-0.3969 3.7321-3.0345 4.2678-2.1313 0.76905 1.0264 1.6993 2.6624 1.3384 4.6418-1.1626-0.02596-4.4013 1.1218-5.1785 0.66881z"/>
   <path d="m118.28 66.251c1.1044-0.3344 1.1696-0.37828 1.8615-0.60003l0.40089 2.7981c-0.7563 0.22404-1.4951 0.4031-2.2722-0.04994 6e-3 -0.70844 0.15602-0.98362 0.01-2.1481z"/>
   <path d="m116.5 62.188c1.1669 0.13435 2.7321 1.2155 3.2678 2.1187l-1.8179 0.7981c-0.28755-0.77596-0.87009-1.5969-1.6472-2.0499z"/>
   <path d="m109.43 56.914c0.69815-1.2094 5.1739-2.4112 5.7096-1.508-0.2429 1.8258-1.1135 3.6063 0.44194 5.6569-0.6938-0.36971-4.261 1.6905-5.0381 1.2374z"/>
   <path d="m110.93 63.72c1.6704-0.32552 2.9642-0.82022 4.2953-1.1544l-2.1213 5.3033c-0.87058 1.1329-3.3771 2.1324-4.1542 1.6794 0.12529-1.8759 0.0376-3.7252 1.9802-5.8283z"/>
   <path d="m115.62 64.427c0.96332 1.0003 0.75449 4.7482 0.84819 5.8283l-1.7678 3.182c-0.6938-0.36971-0.5487-2.5522-0.88388-4.0659z"/>
   <path d="m108.72 71.763c1.1401-0.23713 2.5223-0.46667 3.5882-1.508l0.88389 5.0381c-1.3125 0.77934-1.3442 1.6905-2.74 3.3588-0.86648-1.9494-1.986-3.5951-1.7321-6.8889z"/>
   <path d="m103.95 61.068c0.69815-1.2094 3.6713-4.4441 4.207-3.5409l0.70711 5.8336c-1.4828 0.22203-2.717 0.04633-3.4472-0.44194z"/>
   <path d="m105.1 64.604c1.2285-0.4139 1.55 0.24044 2.9695 0.52497l-0.70711 4.9497c-0.53561-0.05333-2.5436 0.97099-3.6239-0.08839-0.96402-1.0152 0.82624-3.7285 1.3615-5.3863z"/>
   <path d="m104.04 72.028c1.1401 0.2932 1.9919 0.32883 3.0579 0.08303l0.79549 4.6846c-2.3418 1.2783-3.7768 2.0902-4.5078 1.591 0.46124-2.1195 0.66448-4.2391 0.65441-6.3586z"/>
   <path d="m102.89 81.486c1.1401-0.85584 3.8481-1.7041 5.6212-2.8338 0.88715 0.957 0.61629 1.1924 1.591 1.2374-0.6938-0.36971-2.4048 8.1428-3.182 7.6898z"/>
   <path d="m102.01 83.342c1.1401 1.0887 1.9036 3.0689 2.7927 4.1489l-3.4471 1.6794c-0.6938-0.36971-0.72548-1.5799-0.61872-3.0936z"/>
   <path d="m135.51 65.222c0.8642 0.7137 2.5331 2.1183 3.4114 3.7069l-2.1213 4.6846c-0.53453-1.3253-1.9829-5.0838-2.74-6.0988z"/>
   <path d="m129.76 67.609c0.96331-0.06035 2.3455 0.594 3.2347 0.79013l2.1213 4.5962c-0.95897 0.77934-2.1397 1.3369-3.3588 1.8562-1.4284-0.82997-1.7609-5.3543-1.9972-7.2425z"/>
   <path d="m135.95 74.415c0.3446 0.64676 0.40625 1.9392 0.40625 1.9392l-0.0884 1.591c-1.1357-0.19293-2.67-1.0496-3.4471-1.5026z"/>
   <path d="m101.56 63.454c0.43299-0.67907 0.66611-2.0577 1.2018-1.9499l1.149 2.1213c-1.1357 0.86773-2.5816 2.3092-3.3588 1.8562z"/>
   <path d="m131.04 77.376c1.1843 0.20482 2.4781 1.4337 3.3231 2.1602l-1.4584 1.3258c-0.6938-0.36971-0.99065-0.60763-1.7678-1.0607z"/>
   <path d="m98.652 78.282c0.69815-1.2094 1.5134-0.75328 2.049 0.14997 0.29066 1.4364 0.0988 2.712-0.0991 3.9856-0.8442 1.5666-1.1514 2.7932-1.8444 3.3225-0.45-1.1607-0.7237-3.3942-0.67779-4.3724 0.4533-0.39401 0.07505-2.3865 0.5723-3.0856z"/>
  </g>
  <path d="m57.112 72.733c0.87493-1.0326 1.2406-1.3947 2.0414-1.9057l-0.51516 7.6524c-0.6938-0.36971-0.39467-0.33488-1.2343-1.1736z" fill="url(#br)"/>
  <path d="m50.875 64.049-0.75 28.562-0.75 2.5625c0.0502 1.286 0.51797 2.2936 1.0625 3.25l-1.5 2 0.125 1.25c1.7069 0.28886 3.6252 0.18791 5-0.1875 0.72538-0.90743-0.22921-1.1849-0.75-1.625-0.12397-0.4406-0.28439-0.77183-0.25-1.6875l0.375-3-0.5625-2c-0.36039-3.1385-0.02083-6.2708 0.0625-9.1875l1.25-5.6875 0.125-12-1.6875-3z" fill="#c6940e" stroke="#ff2a2a" stroke-width=".35433"/>
  <path d="m50.875 64.049-0.75 28.562-0.75 2.5625c0.0502 1.286 0.51797 2.2936 1.0625 3.25l-1.5 2 0.125 1.25c1.7069 0.28886 3.6252 0.18791 5-0.1875 0.72538-0.90743-0.22921-1.1849-0.75-1.625-0.12397-0.4406-0.28439-0.77183-0.25-1.6875l0.375-3-0.5625-2c-0.36039-3.1385-0.02083-6.2708 0.0625-9.1875l1.25-5.6875 0.125-12-1.6875-3z" fill="url(#bp)" stroke="#ff2a2a" stroke-width=".35433"/>
  <path d="m54.327 71.761c0.65396 0.20482 1.108 0.32883 1.6437 0.70174l0.22097 4.5078c-0.6938-0.36971-1.4326-0.7844-2.2097-1.2374z" fill="url(#bs)"/>
  <path d="m38.375 64.737c-2.347 1.6823-3.7302 3.8768-5.25 6.3125-0.8671 3.0733-1.8023 5.8741-3 7.625l-1 3.625 0.6875 15.5 2.4375 1.875-0.875 2.75c2.1812 0.45487 4.5691 0.56539 7.25 0.1875-0.66674-1.985-1.6714-3.4873-3.5-3.8125l-1.1875-3.0625 0.25-2.75c-1.0816-3.175-2.0897-6.3835-1.375-10.375 1.1487-5.3704 1.573-10.137 5.5625-17.875z" fill="url(#bo)" stroke="#f00" stroke-width=".35433"/>
  <path d="m59.344 17.121c0.69815-1.2094 1.6384-0.37828 2.174 0.52497l0.08839 3.9231c-0.60005 0.63029-0.90134 1.7468-2.7097 1.4188z" fill="url(#bx)"/>
  <path d="m62.77 17.471c1.1669 0.57185 1.8259 0.43422 2.3928 0.55622l0.65089 6.2356c-0.74702-0.54555-2.7984-0.51636-2.991-1.6124z" fill="url(#by)"/>
  <path d="m58.77 24.096c1.4482 1.3844 2.2321 3.9342 2.7678 4.8375l-1.6304 1.8606c-0.6938-0.36971-1.1513-0.9719-1.9285-1.4249z" fill="url(#ca)"/>
  <path d="m60.52 24.377c0.69815-1.2094 5.0759 0.49672 5.6115 1.4l0.52589 3.8606c-0.6938-0.36971-3.4951-1.0032-4.2722-1.4562z" fill="url(#bz)"/>
  <path d="m62.813 29.555c1.7588 0.95612 3.5387 1.1243 4.0744 2.0276l-0.17678 5.3033c-0.6938-0.36971-2.0955-0.69602-2.8726-1.149 1.277-4.1901-0.10708-4.5158-1.025-6.1818z" fill="url(#cb)"/>
  <path d="m59.366 33.444c1.0075-1.0326 1.6826-1.9251 2.5718-2.878 1.5578 2.6044 0.95967 4.9915 0.48614 6.8059-1.0032-0.14874-1.6978-0.60763-2.5191-0.7955z" fill="url(#cc)"/>
  <path d="m57.421 30.837c0.78654 0.64676 1.2848 0.90335 1.6879 1.2763-1.6118 1.4346-0.30368 3.0458-0.44194 4.3752-1.0474-0.14874-1.9629 0.14367-4.0217-0.13258 1.0454-1.5436 2.553-4.2104 2.7757-5.5189z" fill="url(#cd)"/>
  <path d="m60.426 11.392c0.78654 1.0003 0.53352 2.3176 1.0692 3.2208l1.8562 1.6794c-0.29605 0.2932-3.1562-1.0054-3.9333-1.4584 0.05763-1.2868 0.48041-2.2724 1.008-3.4418z" fill="url(#bw)"/>
  <path d="m63.52 36.936c1.0517 0.3374 2.4781 0.63819 3.0137 1.5414l-1.1049 4.2426c-0.56122-0.81165-2.0071-2.066-3.1378-2.3423z" fill="url(#ce)"/>
  <path d="m53.576 37.731c1.7146-0.28132 3.7155-0.02472 5.0466 0.21561 0.18427 1.0786-0.42633 2.3087-1.37 3.3588-0.49368-0.68991-3.4861-2.6253-4.6404-2.4749z" fill="url(#cf)"/>
  <path d="m60.117 37.996c0.83073-0.06035 1.1964 0.28464 1.5553 0.56916-1.0739 3.6106-0.89539 4.299-1.3258 6.4082-0.5389-0.40844-0.99439-1.9215-2.0771-2.2981 0.75474-1.2357 1.4432-2.6261 1.8476-4.6792z" fill="url(#cg)"/>
  <path d="m62.017 41.665c1.3611 0.46998 2.3013 1.3895 2.8369 2.2927-1.4589 1.6524-1.8178 4.1849-2.1213 6.7617-0.6938-0.36971-1.1674-1.4473-1.591-2.6517z" fill="url(#ch)"/>
  <path d="m51.764 39.853c1.2727 0.24901 2.3897 1.0359 3.3231 1.8066-1.6008 0.86641-2.1456 1.858-3.2704 2.961-0.6938-0.36971-1.6094-2.3754-2.3865-2.8284z" fill="url(#ci)"/>
  <path d="m55.918 42.239c0.91912 0.24901 2.3455 1.3895 2.3508 2.2043l-3.1365 3.0463c-0.56122-0.85585-1.0361-0.95804-2.3878-2.2508 0.83772-0.99995 1.9875-1.9999 3.1735-2.9998z" fill="url(#ck)"/>
  <path d="m59.189 45.067c0.47718 0.46998 0.62191 0.99174 1.1134 1.453-0.07279 1.9943 0.03625 4.0216-1.2816 5.7894-0.44797-1.0571-1.1648-2.5967-2.4048-3.6422 0.91212-1.342 2.0072-2.9507 2.5731-3.6003z" fill="url(#cj)"/>
  <path d="m61.001 50.813c1.4495 1.3539 2.1687 1.6105 2.7043 2.5137 0.76022 1.3965 0.44411 3.0237-0.44194 4.773-0.6938-0.36971-2.8026-3.7896-3.5797-4.2426 0.71281-1.0379 0.73561-1.2975 1.3173-3.044z" fill="url(#cl)"/>
  <path d="m47.989 42.627c0.69815-1.2094 1.8884 1.4967 2.424 2.4-1.0644 0.96848-1.9544 2.3643-4.6616 2.0481-0.6938-0.36971-0.49509-2.3469-1.2722-2.7999z" fill="url(#cm)"/>
  <path d="m51.489 45.94c1.0732 0.6656 2.0759 1.4342 2.6115 2.3375-1.4976 1.168-3.5388 1.725-5.1616 2.9231-0.4438 0.41154-2.9013-2.8157-2.2722-2.9874 2.7056 0.02005 3.4762-1.2358 4.8223-2.2731z" fill="url(#ax)"/>
  <path d="m56.426 50.252c0.63565 0.7906 1.2009 3.0592 1.7365 3.9625-0.37419 1.2053-0.91375 2.3003-1.7866 3.1731-0.6938-0.36971-1.9951-0.6594-2.7722-1.1124 0.10748-1.0152 1.9371-3.906 2.8223-6.0231z" fill="url(#co)"/>
  <path d="m55.051 49.377c0.42504 0.2281 0.66963 0.49672 0.67402 0.71247-1.3664 2.0994-3.459 3.654-4.0991 6.2981-0.22505-0.71346-0.80759-2.8157-1.7097-3.6124z" fill="url(#ay)"/>
  <path d="m39.957 45.502c1.1669-0.30315 1.8884-0.28453 2.8303-0.47503 1.0023 0.3303 1.2865 1.4073 1.4321 2.3606-0.81723-0.07696-3.587 2.4271-4.2097 3.1063-0.48574-1.308-1.0521-2.8533-0.0527-4.9919z" fill="url(#bb)"/>
  <path d="m44.895 48.502c0.88565 1.5719 2.1071 2.6842 2.6428 3.5875l-3.3804 1.9543c-0.6313-1.0885-2.3076-2.2219-3.4597-2.4249 0.60904-1.1246 1.7697-2.05 4.1973-3.1169z" fill="url(#ba)"/>
  <path d="m44.801 55.627c1.1044-0.3969 3.7321-3.0345 4.2678-2.1313 0.76905 1.0264 1.6993 2.6624 1.3384 4.6418-1.1626-0.02596-4.4013 1.1218-5.1785 0.66881z" fill="url(#az)"/>
  <path d="m41.739 56.659c1.1044-0.3344 1.1696-0.37828 1.8615-0.60003l0.40089 2.7981c-0.7563 0.22404-1.4951 0.4031-2.2722-0.04994 0.0058-0.70844 0.15602-0.98362 0.0098-2.1481z" fill="url(#bf)"/>
  <path d="m39.957 52.596c1.1669 0.13435 2.7321 1.2155 3.2678 2.1187l-1.8179 0.7981c-0.28755-0.77596-0.87009-1.5969-1.6472-2.0499z" fill="url(#be)"/>
  <path d="m32.893 47.321c0.69815-1.2094 5.1739-2.4112 5.7096-1.508-0.2429 1.8258-1.1135 3.6063 0.44194 5.6569-0.6938-0.36971-4.261 1.6905-5.0381 1.2374z" fill="url(#bd)"/>
  <path d="m34.396 54.127c1.6704-0.32552 2.9642-0.82022 4.2953-1.1544l-2.1213 5.3033c-0.87058 1.1329-3.3771 2.1324-4.1543 1.6794 0.12529-1.8759 0.03762-3.7252 1.9802-5.8283z" fill="url(#bc)"/>
  <path d="m39.08 54.834c0.96332 1.0003 0.75449 4.7482 0.84819 5.8283l-1.7678 3.182c-0.6938-0.36971-0.5487-2.5522-0.88388-4.0659z" fill="url(#bg)"/>
  <path d="m32.186 62.171c1.1401-0.23713 2.5223-0.46667 3.5882-1.508l0.88388 5.0381c-1.3125 0.77934-1.3442 1.6905-2.74 3.3588-0.86648-1.9494-1.986-3.5951-1.7321-6.8889z" fill="url(#bk)"/>
  <path d="m27.413 51.476c0.69815-1.2094 3.6713-4.4441 4.2069-3.5409l0.70711 5.8336c-1.4828 0.22203-2.717 0.04633-3.4471-0.44194z" fill="url(#bh)"/>
  <path d="m28.562 55.011c1.2285-0.4139 1.55 0.24044 2.9695 0.52497l-0.7071 4.9497c-0.53561-0.05333-2.5436 0.97099-3.6239-0.08839-0.96402-1.0152 0.82623-3.7285 1.3615-5.3863z" fill="url(#bj)"/>
  <path d="m27.502 62.436c1.1401 0.2932 1.9919 0.32883 3.0579 0.08303l0.7955 4.6846c-2.3419 1.2783-3.7768 2.0902-4.5078 1.591 0.46124-2.1195 0.66448-4.2391 0.65441-6.3586z" fill="url(#bl)"/>
  <path d="m26.353 71.893c1.1401-0.85584 3.8481-1.7041 5.6212-2.8338 0.88715 0.957 0.61629 1.1924 1.591 1.2374-0.6938-0.36971-2.4049 8.1428-3.182 7.6898z" fill="url(#bm)"/>
  <path d="m25.469 73.749c1.1401 1.0887 1.9035 3.0689 2.7927 4.1489l-3.4471 1.6794c-0.6938-0.36971-0.72548-1.5799-0.61872-3.0936z" fill="url(#bn)"/>
  <path d="m58.968 55.63c0.8642 0.7137 2.5331 2.1183 3.4115 3.7069l-2.1213 4.6846c-0.53454-1.3253-1.9829-5.0838-2.74-6.0988z" fill="url(#cn)"/>
  <path d="m53.223 58.016c0.96332-0.06035 2.3455 0.594 3.2347 0.79013l2.1213 4.5962c-0.95897 0.77934-2.1397 1.3369-3.3588 1.8562-1.4284-0.82997-1.7609-5.3543-1.9972-7.2425z" fill="url(#aw)"/>
  <path d="m59.41 64.822c0.3446 0.64676 0.40625 1.9392 0.40625 1.9392l-0.08839 1.591c-1.1357-0.19293-2.67-1.0496-3.4471-1.5026z" fill="url(#cp)"/>
  <path d="m25.027 53.862c0.43299-0.67907 0.6661-2.0577 1.2017-1.9499l1.1491 2.1213c-1.1357 0.86773-2.5816 2.3092-3.3588 1.8562z" fill="url(#bi)"/>
  <path d="m54.504 67.783c1.1843 0.20482 2.4781 1.4337 3.3231 2.1602l-1.4584 1.3258c-0.6938-0.36971-0.99064-0.60763-1.7678-1.0607z" fill="url(#bq)"/>
  <path d="m22.114 68.69c0.69815-1.2094 1.5134-0.75328 2.049 0.14997 0.29066 1.4364 0.09884 2.712-0.09911 3.9856-0.8442 1.5666-1.1514 2.7932-1.8444 3.3225-0.45-1.1607-0.7237-3.3942-0.67779-4.3724 0.4533-0.39401 0.07505-2.3865 0.5723-3.0856z" fill="url(#bt)"/>
  <path d="m64.999 10.67s0.96032-0.58572 1.4786-0.64016c0.53426-0.056128 1.5998 0.32766 1.5998 0.32766-0.10555 0.48115-0.66421 0.95136-1.2027 1.0663-0.58232 0.1243-1.5692 0.05614-1.8756-0.75379z" fill="#fafafa" stroke="#240000" stroke-width=".35433"/>
  <path d="m57.762 8.5859c0.40004 0.39596 1.3756 1.6333 2.2539 1.6573 0.6685 0.06577 1.4222 0.20099 2.0329 0.7292l-0.97227-1.0386c-0.43005-0.29696-0.88211-0.39447-1.2595-0.37565-0.65513 0.032417-1.6264-0.60825-2.055-0.97227z" fill="#5b0000"/>
  <path d="m59.938 11.987c-0.84103-0.18206-1.6774 1.2078-2.0625 1.9375 0 0-0.35314 3.6274-0.5625 5.4375-0.41506 3.5886-0.41208 7.2682-1.375 10.75-0.48491 1.7534-1.3695 3.3751-2.1875 5-0.96093 1.9088-3.1875 5.5625-3.1875 5.5625s3.1195-3.1225 4.375-4.875c1.246-1.7392 2.1417-3.7438 2.6875-5.8125 0.96975-3.6754 1.3618-7.5121 1.4375-11.312 0.04307-2.161 0.875-6.6875 0.875-6.6875z" fill="url(#bv)"/>
  <path d="m62.199 5.199c1.0894 0.22069 1.4587-0.48447 1.7348-1.3094 0.60066 0.56755 1.2451 0.74148 1.9634 0.25 0.0093-0.767-0.38369-1.8566-1.4268-2.2727-0.34497 0.28739-0.94581 0.11421-0.75 1.375-0.61797-0.23863-1.0609-0.88573-2-0.375-0.92717 0.62974 0.20786 1.8113 0.47855 2.3321z" fill="#803300"/>
  <ellipse cx="66.644" cy="10.743" rx=".54633" ry=".54633" color="#000000" stroke="#7c0000" stroke-linecap="round" stroke-linejoin="bevel" stroke-width=".27814"/>
  <path d="m64.463 1.3281c-0.14771-0.01818-0.28527 0.00261-0.4043 0.076172-0.64127 0.39634-0.77878 0.81668-0.76562 1.5273-0.46649-0.57508-1.1863-0.96703-1.7188-0.71484-0.43217 0.2047-0.80124 1.2381-0.64648 1.8984 0.57621 1.2181 1.1017 1.4161 1.3262 2.8809-0.77175-0.52588-1.6225-0.28329-1.9805 0.37695-1.625-0.79752-3.1446-0.23436-5.0293-1.0859 0.18522 3.0881 2.4304 5.1633 4.2578 5.6758-0.18795 1.3163-0.59786 2.7775-0.74414 4.459-0.58838 6.763-0.86595 15.383-4.6191 19.725-3.4725 4.0172-7.5087 6.5145-13.043 7.1895-3.9361 0.48007-10.943 2.6234-13.814 5.7617-2.1405 2.8636-3.2983 3.6583-4.6699 6.9414-1.2432 2.9757-0.9231 8.514-0.91406 12.447 0.0048 2.1005-0.62533 3.2355-0.79883 4.9277 1.1586 1.6875 0.1634 3.7607 1.3555 3.5879 1.3426-2.0824 2.7813-5.1646 2.668-7.7266-1.1251-3.0996-0.08212-11.61 1.8008-12.102-0.52014 3.1413 0.06801 8.006-0.48438 11.576-0.54103 3.4968-3.2675 5.717-2.8535 9.2539 0.64163 3.3382-0.07444 8.6306-0.26172 11.977-0.36338 1.6907-2.0593 5.2739-1.9355 7.5527 0.25959 0.87552 0.92761 1.3062 1.0566 2.5312-1.1999 1.8126-1.7276 3.3131-1.0703 3.9336 0.66099 0.624 2.514 0.3632 4.3145 0.4082 1.6825 0.0565 4.0602 0.18723 4.5137-0.66797 0.27084-0.51079-0.38607-1.6943-1.6191-2.5644-0.81893-0.90624-1.1622-3.1353-1.166-5.1719-0.18547-3.9125 0.3194-9.8125 1.582-13.555 0.18872 1.7076-0.2275 5.8575-0.10742 7.9727 0.16928 2.9818 0.53681 5.8933 0.65039 7.9941 0.9502 0.99451 1.5757 0.88195 1.9062 1.9297 0.17287 0.54794-0.52607 1.4224-0.90234 2.2637 1.2419 1.1523 7.5035 0.78061 9.2734 0.45899-0.89015-2.47-2.1623-4.1135-3.8789-4.6504-1.5686-1.5305-0.53675-4.0154-1.1699-5.8496-0.89218-2.5845-1.3848-5.6104-1.2363-8.2344 0.38024-6.7198 3.7567-14.76 6.0098-19.428 1.9795 0.4707 2.8524 1.7657 5.7012 1.7129 2.6077-0.04831 3.6107-0.35604 5.0801-1.2559l-0.48828 13.221c-0.82532 4.1671 0.62958 9.7334-0.2207 14.213-0.79326 2.645-0.61489 3.2367 0.4082 5.4316-1.6999 1.682-1.9613 3.3895-0.82812 3.7695 1.3395 0.44919 4.3534 0.1419 5.3203-0.0156 0.82757-0.59085 0.54492-1.7758-0.65234-2.627-0.25314-1.2649 0.06582-2.8068 0.08008-4.1152 0.01266-1.1621-0.65231-1.9531-0.7168-3.0664-0.05529-0.95452 0.49658-2.2294 0.42383-3.2441 0.02084-2.0138-0.20518-5.5665 0.74414-7.373-0.0201 1.7573 0.35857 5.106 0.38086 7.4941 0.02705 2.8979-0.4187 4.7583-0.3418 7.1914-0.09637 1.3521 1.0294 2.6742 1.2012 4.373 0 0-1.7598 2.5901-1.3809 3.6387 2.0857 0.16955 5.6096 0.0887 8.8477-2e-3 -0.76245-1.8549-1.1285-3.2911-2.4844-4.0918-1.3618-3.6279-1.6248-10.784-1.1973-15.49 0.51361-1.7926 1.5354-2.9807 0.24024-6.377 0.82836-4.6393 1.0258-14.758 3.8848-18.748 0.99232-1.3098 1.7844-2.6877 1.8516-3.9824 0.11361-2.1914-0.9862-4.5601-0.95117-6.9121 0.06038-4.0549 3.55-7.133 3.7266-11.432 0.27193-6.6212-0.9138-14.04-2.3086-20.475 1.3776 1.5554 5.6489-0.0603 7.1016 0.58789 0.76534 0.1671 2.5173 0.77798 3.3984-0.19141 0.83924-0.92329 1.6696-0.93658 2.0898-1.668 0.12324-0.88809-0.36612-2.2952-0.88672-2.8828-0.69046-0.77931-2.1657-1.6333-3.584-1.8222-1.3005-1.2946-1.8513-1.8367-2.627-2.5703-0.7888-2.2499-2.3066-2.2613-3.5586-1.7227-0.62866-1.0542-1.0915-2.7755-1.834-4.2754-0.33085-0.40671-0.85765-0.8146-1.3008-0.86914zm0.20703 1.4551c0.07723 0.014115 0.16902 0.056768 0.27734 0.12695 0.519 1.4122 1.3803 3.8658 2.084 4.3086-0.61146 0.10835-0.8834-0.23278-1.3145-0.29102-0.31911-1.0127-0.86242-2.1687-1.3945-3.4883 0.01735-0.48483 0.11597-0.69859 0.34766-0.65625zm-1.9766 0.57422c0.38617-0.043714 1.0635 0.52315 1.4199 1.3086 0.21164 0.37465 1.1491 1.7943 1.0547 2.9531 0.52706 0.31333 1.4083 0.19014 2.375 0.11914 0.79411 0.15337 1.3143-0.84107 2.002 1.2266 0.25212 0.76897 1.8116 1.7906 3.6602 3.0801 1.3751 0.10529 2.2671 0.9867 2.5488 1.4824 0.15572 0.27402 1.2437 0.67818 0.9082 1.1406-0.02889 0.07731-0.11807 0.35364-0.42903 0.323-0.20117-0.01982-0.67458-0.15724-0.9203-0.22778-0.38895-0.11166-1.1146-0.55331-1.24-0.45623-0.1675 0.12973 1.4891 1.2584 1.392 1.4626-0.31672 0.66585-1.5265 0.50968-2.5176-0.11523-3.2662-0.59341-5.2196 1.3525-7.0332 2e-3 -0.49447-0.23761-1.1571-0.67652-1.3081-0.85461-0.2078-0.24498-1.3584-1.9132-1.3924-1.8675-0.25897 0.28952 0.64318 1.8283 0.79307 2.0658 0.43114 0.61249 0.95377 1.0799 0.90451 1.1641-0.8155 1.3937-0.33233 2.6444-0.13376 4.4726 1.2401 6.6371 2.7251 13.453 0.69531 20.021-0.6058 1.9604-1.9876 3.6483-2.5352 5.9961-0.4763 2.0421-1.172 3.8472 0.01563 5.6914 2.2624 4.0057-2.0642 7.1703-3.2988 10.779-1.0341 5.3964-1.4388 10.512-1.7724 15.996 1.6073 1.3651 1.0458 3.3042-0.40771 5.4497 0.29382 3.5402 0.49786 11.704 1.8721 16.431 1.0664 0.83832 1.5287 1.6721 1.9751 2.3921-1.5847-0.0644-6.6193 0.8388-5.6788-0.59532 1.2573-1.3192 1.2288-2.5137 0.61328-3.4805-0.42715-0.67086-0.49346-2.2252-1.0059-3.1914 0.58609-3.931 0.3736-7.2829 0.20703-11.246-0.35646-1.9917-1.1381-4.1895-0.41602-6.707-0.10032-4.1831 0.01246-8.6166 0.14453-12.164-1.2586-0.49459-1.3065-2.3071-1.541-3.2578-0.41222-1.6711-0.79713-3.0787-0.74219-4.543 0.03337-0.88933 0.16779-1.5054 0.48047-2.3262 0.46228-1.2135 1.0428-1.6222 0.84961-2.6094-0.48398 1.1644-1.9558 2.2595-2.2363 3.4922-0.29647 1.3026-0.30772 2.8144-0.14648 4.127 0.06334 0.51562 0.2879 1.1822 0.38086 1.6934-1.7872 0.58864-3.0426 1.5173-4.4004 1.7461-2.5207 0.38157-5.7759 0.03687-8.0059-0.98828 0.558-1.2586 0.866-2.1415 1.2114-3.4753 0.268-1.035 0.33733-2.033 0.09926-3.0558-0.31242-1.3421-0.60936-1.8785-1.588-3.0119 0.327 1.4479 0.80687 2.9269 0.78542 4.4169-0.01332 0.92561-0.45986 1.9154-0.76942 2.7804-0.30518 0.85275-0.82455 1.6823-1.2055 2.5039-1.7525 1.6348-3.0327 2.9485-4.5508 5.1777-2.0762 3.0489-1.5319 4.6111-3.3398 7.918-0.37155 2.2562-1.8806 3.0719-2.8086 5.0879-1.0482 2.8255-1.2169 6.3464-1.3848 9.5801-0.15162 2.9211-0.84362 6.1861 0.23633 9.084 0.43031 1.1717 2.185 2.1275 1.9336 2.4941-0.24168 0.35249-3.1384 0.57803-4.6133 0.41602-0.31937-0.0211-1.2822 0.0175-1.334-0.33789-0.0518-0.35537 0.4947-1.043 1.0684-1.3867 1.2727-0.76264-0.46092-3.573-0.56055-4.1856 0.28386-1.3026 0.49582-1.8783 0.89453-3.1992 0.27344-2.9892 0.86017-5.8626 1.3965-8.9941 0.32647-2.1112 0.04225-6.2835-0.46289-8.3867 0.04502-1.5283 1.1444-2.8541 1.918-5.3867 0.95801-3.1363 1.6692-5.5845 0.93945-9.5586-0.5422-2.9526 0.75935-5.3124 1.8242-7.8105-1.91 1.4975-5.0396 2.1526-5.252 5.0059-0.29778 3.7987-1.1689 7.6229-0.37305 11.414 0.39567 1.5127-1.2719 4.833-1.5979 4.8112-0.12549 0.02332 0.02822-1.7025-0.51147-2.4127 0.07091-0.99708 0.65604-3.055 0.76017-4.1481 0.25267-2.6525-0.0606-5.9068 0.34051-8.3214 0.27152-1.6344 0.89126-2.8527 1.4462-4.4231 1.9819-3.233 3.2659-4.422 5.4062-6.0957 2.7902-3.1237 8.7901-3.8223 12.559-4.4883 6.1341-1.084 9.8646-4.8193 13.289-9.6406 3.0994-4.3638 3.7617-12.068 4.0059-19.012 0.0992-2.8207 0.78474-4.8901 2.1562-5.502-1.3226-0.81577-4.2371-0.16292-4.9199-3.4492 1.38 0.93921 1.6629 0.33064 4.0215 0.96289 0.81418-1.1046 1.998-0.60352 1.998-0.60352s0.92519-0.97967 0.18164-2.3984c-0.81066-1.6569-0.71626-2.3118-0.33008-2.3555zm-10.184 60.674c0.20674 1.1657-0.11206 1.7732 1.0176 2.7852-0.02077 1.1805 0.13413 5.219-0.16602 12.605-1.2481 4.0591-0.92993 7.0616-1.0234 9.9453-0.02254 0.69495 0.16607 3.7314 0.17969 4.8691 0.06256 0.78109 0.44125 1.0864 0.49609 1.8203 0.04431 0.59297-0.57943 2.0205-0.50781 2.6094 0.2135 1.7555 1.2417 2.1011 1.248 2.1953 0.07673 1.1455-3.8686 0.63681-4.0156 0.34961-0.0057-0.0111-0.1179-0.73453 0.16602-1.1641 0.30889-0.46732 1.0176-0.66618 1.0547-1.3047 0.08379-1.4426-0.3726-1.1542-1.0684-3.127 0.09207-1.9995 0.6101-0.89544 0.78125-3.3711 0.23897-3.4566 0.0554-8.6836 0.28906-12.502 0.3779-6.1754 0.41613-12.71 0.68359-15.246 0 0 0.49491-0.30528 0.86524-0.46484zm-15.633 2.9727c-3.6959 7.0594-5.8769 14.793-4.5938 22.305 0.15654 0.91628 1.1992 3.2294 1.002 4.8496-0.3662 3.0075 0.79742 3.4873 1.5508 5.0996 2.5802 0.65167 1.9878 2.2972 2.6289 2.8594-1.2734 0.33491-4.9006 0.20545-5.1152-0.16211-0.16863-0.28878 0.61322-1.7095 0.67774-2.4141 0.06451-0.70457-1.4635-1.3809-2.2559-1.8105-0.44439-3.1756-0.41359-4.5267-0.71484-7.5996-0.45742-4.6659-0.67608-7.8428 0.47461-10.619 2.0691-3.6823 3.1053-9.4211 6.3457-12.508z" color="#000000" color-rendering="auto" image-rendering="auto" shape-rendering="auto" solid-color="#000000" style="block-progression:tb;isolation:auto;mix-blend-mode:normal;text-decoration-color:#000000;text-decoration-line:none;text-decoration-style:solid;text-indent:0;text-transform:none;white-space:normal"/>
 </g>
</svg>
