<?xml version='1.0' encoding='utf-8'?>
<svg xmlns="http://www.w3.org/2000/svg" enable-background="new 0 0 158.88 141.84" version="1.1" viewBox="0 0 158.88 141.84"><defs><radialGradient id="i" cx="44.948" cy="47.886" r="30.165" gradientTransform="matrix(.63025 3.9404 -2.8484 .45559 147.52 -151.71)" gradientUnits="userSpaceOnUse"><stop stop-color="#f60" offset="0"/><stop stop-color="#f60" stop-opacity="0" offset="1"/></radialGradient><radialGradient id="j" cx="42.646" cy="28.292" r="19.79" gradientTransform="matrix(1.1199 -1.4201 1.3472 1.0624 -37.783 63.034)" gradientUnits="userSpaceOnUse"><stop stop-color="#f60" offset="0"/><stop stop-color="#f60" stop-opacity="0" offset="1"/></radialGradient><radialGradient id="k" cx="63.256" cy="69.897" r="42.998" gradientTransform="matrix(-.12235 .85919 -.9424 -.1342 141.3 30.944)" gradientUnits="userSpaceOnUse"><stop stop-color="#acf" offset="0"/><stop stop-color="#acf" stop-opacity="0" offset="1"/></radialGradient><radialGradient id="l" cx="72.483" cy="51.6" r="42.998" gradientTransform="matrix(.012646 -.99992 .62666 .0079255 72.343 157.58)" gradientUnits="userSpaceOnUse"><stop stop-color="#deaa87" offset="0"/><stop stop-color="#c8beb7" stop-opacity="0" offset="1"/></radialGradient><radialGradient id="m" cx="92.326" cy="50.24" r="37.684" gradientTransform="matrix(1.5383 .1746 -.053519 .47154 -47.151 7.6606)" gradientUnits="userSpaceOnUse"><stop stop-color="#808080" offset="0"/><stop stop-color="#808080" stop-opacity="0" offset="1"/></radialGradient><radialGradient id="n" cx="52.981" cy="67.942" r="30.165" gradientTransform="matrix(-.34139 1.0276 -1.1739 -.38998 135.7 24.121)" gradientUnits="userSpaceOnUse"><stop stop-color="#800000" offset="0"/><stop stop-color="#800000" stop-opacity="0" offset="1"/></radialGradient><linearGradient id="h" x1="81.738" x2="79.566" y1="8.2765" y2="13.828" gradientUnits="userSpaceOnUse"><stop stop-color="#800000" offset="0"/><stop stop-color="#800000" stop-opacity="0" offset="1"/></linearGradient></defs><path d="m27.689 31.908c-11.878 22.038-4.827 42.584 9.4817 57.336 9.7711 11.198 24.405 15.864 40.26 13.813 2.4133 1.6124 5.6139 2.9218 7.3682 3.9981 1.6939 1.0391 0.84998 1.8794 2.8602 1.5417 6.4387-1.0815-2.2158-7.2628-1.8356-7.6109 2.3569-2.1573 4.1966 0.44643 3.7243-0.13939 3.9-3.7813 10.229-6.2412 13.898-10.978 1.6806-1.6875 2.953-5.6003 4.3794-5.4636 2.1568 0.2067 3.2161 5.9886 4.8704 8.6164 2.9322 1.4059 19.603-1.89 12.518-7.8789-2.2106-1.6381-7.6903-9.6198-8.6794-12.667-0.51912-1.5992 0.4507-4.5075 0.53349-6.1333 0.10312-2.0248-0.0785-4.1108 1.2766-5.7434 0 0 6.1065-1.5876 11.174-4.0514 9.2528-4.4984 20.846-10.019 26.413-12.889 1.2484-0.39152-0.4507-2.4658-4.0481-2.0989-2.6813 0.27343-7.0264 3.0606-8.7243 2.7034-3.7388-0.78658-0.43127-4.5559-0.43127-4.5559-6.4238-0.0939-14.075 0.10537-8.2855-5.7099 2.3336-2.344-0.13666-0.90714 1.0492-1.7065-10.875-1.5883-23.517-1.5091-31.582-10.189-10.552-13.815-28.848-17.464-42.924-14.811-9.3812-3.8713-11.724-3.952-17.98-2.4924-2.3585 0.60938-3.0946 2.6196-5.0289 2.7926-2.0717 0.18531-5.5944-0.89016-11.926-3.6877 1.0184 2.9002 7.3201 13.432 7.51 16.006 0.14594 1.9779-9.7114-1.2902-12.731-2.0118-0.31488 1.783 6.8364 4.6036 7.7507 7.2296 0.43414 1.2469 0.8582 5.8459-0.89063 6.7819z" fill="#e6e6e6" fill-rule="evenodd"/><path d="m28.981 31.539c2.6968 4.9267 5.4822 9.8235 14.858 10.064 6.4413-1.2286 12.91-1.559 18.701-6.1745 4.0163-3.9361 5.1193-11.042 7.0748-16.105 3.1313 7.6748 4.2429 12.835 7.2189 18.089 3.9045 4.8637 6.5461 13.748 5.161 19.638 1.5973 5.9432-3.2036 18.646-7.3088 22.655-11.692 7.0428-19.921 14.242-30.802 12.642-3.3846-0.51997-4.4883-2.309-7.4413-3.9247 1.1595 0.61918-5.9693-4.0972-8.1959-8.7134-1.57-5.3808-5.2183-10.194-5.251-15.977-1.5934-6.9907-1.5382-20.732 2.8084-27.108 1.3633-3.3217 0.561-2.6087 2.9935-6.6587z" fill="url(#n)" fill-rule="evenodd" opacity=".9"/><path d="m83.34 33.278c3.438-4.5588 9.1976-7.0322 14.869-6.2963 6.322-0.62368 11.786 1.0162 17.858 2.5343 6.008 0.11142 11.83 4.0756 17.914 2.6784 2.9922-1.2384 8.7757 0.51035 4.3651 2.2272-5.6019 3.3042-0.69652 6.7961 2.6847 4.4784 5.7269-1.9432 3.5465 3.9386 2.7658 5.59 3.2853-1.4919 10.606-6.2318 11.847-0.70828-6.9442 4.623-15.949 9.3911-23.788 12.419-6.3398 3.3458-13.384 5.0199-20.425 6.1672-6.0808 0.70768-12.319-0.17428-18.144-1.9135-7.2165-1.6795-6.9893-5.8754-10.45-8.0083-2.8638-3.2168-3.08-8.4638-1.848-12.474 0.03637-1.4888 0.79214-4.9823 2.352-6.694z" fill="url(#m)" fill-rule="evenodd"/><path d="m57.482 16.018c-0.94912-0.43118-0.7626-2.765-1.7115-2.5316-1.3921 0.34246 0.48418-2.955 2.7286-2.7052 2.343-0.58142 8.0256 3.0829 0.70641 5.3552-0.69706 0.19364-1.0973 0.16616-1.7235-0.11835z" color="#000000" enable-background="accumulate"/><path d="m38.382 89.888c8.1354 10.749 33.332 16.818 37.133 12.274-3.3495-6.1706-2.7833-13.325 0.87396-13.897 1.4402-0.22507 5.7586 0.69472 9.1165 2.5166 1.6505 0.89553-0.33206 4.5191-0.15793 7.3878 2.4699 7.0401 21.874-9.7953 28.034-20.341 8.6521-19.671 6.2789-16.615-6.5179-16.34-12.91 1.2757-24.717-6.444-27.719-18.683-3.2543-4.8722-2.6356-9.6719-3.0531-7.7273-1.01 4.7035 4.0612 25.985-0.99932 33.417-3.634 13.421-27.045 27.322-43.513 15.891z" fill="url(#l)" fill-rule="evenodd"/><path d="m83.34 33.278c3.438-4.5588 9.1976-7.0322 14.869-6.2963 6.322-0.62368 11.786 1.0162 17.858 2.5343 6.008 0.11142 11.83 4.0756 17.914 2.6784 2.9922-1.2384 8.7757 0.51035 4.3651 2.2272-5.6019 3.3042-0.69652 6.7961 2.6847 4.4784 5.7269-1.9432 3.5465 3.9386 2.7658 5.59 3.2853-1.4919 10.606-6.2318 11.847-0.70828-6.9442 4.623-15.949 9.3911-23.788 12.419-6.3398 3.3458-13.384 5.0199-20.425 6.1672-6.0808 0.70768-12.319-0.17428-18.144-1.9135-7.2165-1.6795-6.9893-5.8754-10.45-8.0083-2.8638-3.2168-3.08-8.4638-1.848-12.474 0.03637-1.4888 0.79214-4.9823 2.352-6.694z" fill="#c8beb7" fill-rule="evenodd" opacity=".6"/><path d="m42.066 5.9509c3.7019 0.38205 7.7066 2.3564 11.516 2.0687 3.9613 0.48858 8.2681-0.48009 10.027 2.67 1.8178 4.0066 4.7686 7.0651 4.5389 10.587 0.63088 3.6792-1.3439 7.0847-2.6674 10.375-0.61647 4.4074-7.9344 7.3258-11.257 8.0856-5.7517 1.2207-11.863 3.0513-17.661 1.0499-3.027-1.6838-6.5028-3.9872-6.8489-7.7672-0.39647-2.1038-1.1453-5.9362-1.0083-8.1401 1.9058-0.74303 3.0126 3.0825 5.0147 2.1321 2.7766-0.4116 5.6436-1.2631 8.4733-1.3059 3.3171-0.62793 5.3161-4.395 4.4626-7.5642-0.17702-3.1753-0.30339-4.5822-2.8986-6.7539-0.8979-1.6222-6.6534-1.4284-6.0325-3.5837 0.85229-0.40394 3.4112-1.9841 4.3407-1.8529z" fill="url(#j)" fill-rule="evenodd"/><path d="m38.382 89.888c8.1354 10.749 33.332 16.818 37.133 12.274-3.3495-6.1706-2.7833-13.325 0.87396-13.897 1.4402-0.22507 6.3401 0.11317 9.698 1.9351 1.6505 0.89553-0.91361 5.1006-0.73948 7.9693 6.1186 3.9613 21.874-11.898 28.034-20.341 8.6521-19.671 3.1773-15.258-9.6195-14.983-12.91 1.2757-21.615-7.801-24.617-20.04-3.2543-4.8722-2.6356-9.6719-3.0531-7.7273-1.01 4.7035 6.2544 28.178 1.1938 35.61-3.634 13.421-29.238 25.129-45.706 13.698z" fill="url(#k)" fill-rule="evenodd"/><path d="m28.981 31.539c2.6968 4.9267 5.4822 9.8235 14.858 10.064 6.4413-1.2286 12.91-1.559 18.701-6.1745 4.0163-3.9361 5.1193-11.042 7.0748-16.105 3.1313 7.6748 4.2429 12.835 7.2189 18.089 3.9045 4.8637 6.5461 13.748 5.161 19.638 1.5973 5.9432-3.2036 18.646-7.3088 22.655-11.692 7.0428-19.921 14.242-30.802 12.642-3.3846-0.51997-4.4883-2.309-7.4413-3.9247 1.1595 0.61918-5.9693-4.0972-8.1959-8.7134-1.57-5.3808-5.2183-10.194-5.251-15.977-1.5934-6.9907-1.5382-20.732 2.8084-27.108 1.3633-3.3217 0.561-2.6087 2.9935-6.6587z" fill="url(#i)" fill-rule="evenodd"/><path d="m77.585 38.464c0-0.4313-1.2385-1.2741-1.5078-1.9713-0.25896-0.67049-1.5876-2.0265-4.1701-9.65-1.5299-4.5164-3.3046-8.0973-2.1944-8.2259 0 0-3.5125-3.827-5.8709-8.7631l-1.2398-2.5949-1.5211 0.14301c-0.61112 0.057457 5.9426-1.5039 9.0336-1.5063 4.8306-0.00385 7.5569 0.90543 10.021 1.4407 6.7376 1.4633 13.384 4.3429 18.573 8.0228 3.1821 2.2567 7.9104 7.1292 10.035 10.122 0.86699 1.2214 0.31631 1.9902 0.31631 2.0638 0 0.07362-0.5067 0.45839-1.5999 0.26271s-2.8721-0.84689-3.4794-0.85482c-0.60727-0.0079-1.5251-0.05256-1.9543-0.03463-1.6445 0.0687-5.1757 0.24206-8.8089 0.44186-3.5035 0.19266-5.994 1.9043-8.3509 4.2505-1.1685 1.1632 0.13707 1.3707-1.9876 3.2112-1.5728 3.4284-1.3841 8.0697-2.2223 9.1352-0.58781 0.74718-2.0301-2.2585-3.0716-5.4926z" color="#000000" enable-background="accumulate" fill="#ac9d93"/><path d="m68.151 20.667c-0.14009-1.958-0.1803-2.0494-3.8964-8.8659-1.7191-3.1533-3.3248-2.9869-10.171-3.3477-3.7324-0.19669-5.4838-0.43219-8.4985-1.1427-5.0453-1.1891-5.3913-1.6601-3.8753-2.2578 2.4407-0.96237 8.915-1.9682 12.596-0.94646 3.027 0.84016 7.3296 2.7439 9.591 4.8376 2.9586 2.7392 5.6641 7.2855 5.6162 8.9703-0.01238 0.43526-0.12467 2.1454 0.10586 2.4972 0.3779 0.57675-0.01367 7.5e-5 -0.42704 1.2446-0.25216 0.75919-0.78445 0.89572-0.82746 0.89572s-0.1389-0.84822-0.21307-1.8849z" color="#000000" enable-background="accumulate" fill="#917c6f"/><path d="m30.411 25.221c-1.5302-0.78023-4.4579-2.4121-5.2147-3.6366-0.55198-0.8802-3.0021-2.2115-3.7772-2.6538-0.63399-0.52817 0.8185-0.63628 1.3861-0.64522 4.0717 1.4902 9.7898 2.4696 13.206 3.2267 2.9393 0.67258 6.6704 1.9398 7.462 2.1052 2.3902 0.49949 0.88704 1.7935-2.5023 2.1389-1.048 0.10682-3.5181 0.26728-4.4227 0.47503-2.5037 0.57495-4.7147-0.28504-6.1369-1.0102zm5.9586-10.942c-4.8697-4.9139-9.6822-10.626-9.6283-10.68 0.0539-0.053896 4.091 1.5114 6.7204 2.6491 2.6295 1.1378 5.8258 2.7064 7.4583 3.249 1.6325 0.54258 2.3013 0.54586 2.6708 0.83653 1.0055 0.79093 2.7835 2.991 3.109 5.2265 0.34124 2.3439-0.30075 7.9649-0.77497 7.9523-0.17247-0.0046-4.6856-4.3196-9.5553-9.2334z" color="#000000" enable-background="accumulate" fill="#fc0"/><path d="m35.317 19.235c-2.6363-1.9426-5.7031-12.614-5.8758-10.428 1.6336-0.00535 9.2728 8.7752 8.1377 9.2374-0.4585 0.1867-1.8458 1.4735-2.2619 1.191z" color="#000000" enable-background="accumulate" fill="#ffd5d5"/><path d="m57.482 16.018c-0.94912-0.43118-1.5714-1.5545-2.2598-3.4226-0.07403-0.20092 2.4545-1.6772 2.4545-1.6772 1.7947-0.7185 9.5334 2.6717 1.5288 5.2181-0.69706 0.19364-1.0973 0.16616-1.7235-0.11835z" color="#000000" enable-background="accumulate" fill="#0ff" opacity=".59"/><path d="m67.44 6.0007c5.5798-0.10303 9.4982-0.28969 14.677 1.0393 2.3714 1.051 7.4574 2.6972 9.8208 3.7599 3.4654 2.012 4.4214 3.3779 6.7725 4.1958 1.9654 0.96411 6.6706 5.3365 7.8832 7.199 2.0338 0.42311-3.2834 1.6475-5.198 0.25961-2.7721-0.20942-5.5653-0.39788-8.2414-1.2083-3.2631-0.78381-8.6534-1.8781-12.289-3.1169-3.7903-1.7212-5.5287-2.1857-9.1341-4.6209-1.9434-1.395-6.0197-4.487-8.0908-5.6781-1.5526-1.8953 2.6673-1.308 3.7993-1.8294z" fill="url(#h)" fill-rule="evenodd" opacity=".32"/><g clip-rule="evenodd" fill-rule="evenodd" opacity=".57"><path d="m62.64 14.4c-1.55 1.306-2.056 2.846-4.08 2.88-2.768 0.047-4.664-3.104-3.36-5.76 1.639-3.339 7.985-2.038 7.44 2.88zm-2.4-0.72c-1.817 1.504-3.4 0.602-4.56-0.72-0.029 2.175 1.282 3.382 2.88 3.36 2.042-0.028 4.124-2.953 2.16-4.8h-0.48v2.16z"/><path d="m102.24 26.4c-1.828 1.212-5.468 0.612-8.16 0.96 0.375-1.226 2.293-0.907 3.841-0.96 1.203-1.076 2.769 0.017 4.319 0z"/><path d="m44.4 30.48c0.966 0.794 1.247 2.273 2.16 3.12-0.914 0.108-1.682-1.994-2.16-3.12z"/><path d="m47.28 31.92c1.203 1.197 2.461 2.339 3.36 3.84-1.299-1.101-2.557-2.243-3.36-3.84z"/><path d="m77.28 31.92c0.738-0.367 0.738 1.567 0 1.2v-1.2z"/><path d="m139.92 32.88c-0.999 2.282-4.581 1.979-6.721 3.12-0.288-0.726 1.925-0.891 2.88-1.2 1.068-0.346 2.424-0.726 2.881-1.44-1.013-1.569-3.23-0.413-5.04-0.24-2.364 0.225-5.118 0.504-6.96 0.48 2.004-0.531 5.51-1.24 8.399-1.44 1.85-0.128 3.71-0.583 4.56 0.72z"/><path d="m46.8 34.32c0.5 0.46 1 0.92 1.2 1.68-0.597-0.363-1.097-0.823-1.2-1.68z"/><path d="m77.52 37.68c1.011 0.029 0.238 1.841 0.48 2.64-0.383-0.656-0.494-1.586-0.48-2.64z"/><path d="m115.92 38.16c3.048 0.296 7.34-0.893 7.68 1.44 0.311 2.133-3.357 2.607-5.28 2.64 1.262-0.899 3.802-0.518 4.32-2.16-0.28-2.604-5.67-0.094-6.72-1.92z"/><path d="m138.48 44.16c-0.021-1.188 2.029-1.206 3.36-1.68 1.355-0.483 2.868-0.89 3.359-1.92-0.599-2.306-4.181-1.433-7.439-0.72-3.005 0.657-5.28 1.594-8.16 1.92 0.973-0.993 2.813-0.936 4.56-1.44 2.978-0.859 5.977-2.455 9.36-2.16 1.386 0.121 2.552 0.704 2.64 1.68 0.26 2.837-6.25 2.71-7.68 4.32z"/><path d="m75.84 40.32c0.436 0.291 0.249 3.267 0.72 4.32-1.075-0.605-0.6-2.76-0.72-4.32z"/><path d="m27.6 40.32c-0.57 5.43-2.026 12.054-2.16 18.72-0.646-0.147-0.244-1.275-0.24-1.92 0.037-5.807 1.279-11.765 2.4-16.8z"/><path d="m33.36 43.68c1.015 0.033 0.318 1.921 0.24 2.4-0.207 1.566-0.586-1.692-0.24-2.4z"/><path d="m129.84 45.36c-0.559 2.312-5.674 1.231-8.16 2.16 1.024-1.141 3.597-0.53 5.28-0.96 0.854-0.218 1.37-0.571 1.92-0.96-2.354-1.838-6.441-0.583-9.601-0.72 0.438-0.639 2.66-0.665 3.84-0.72 2.6-0.121 5.71-0.301 6.72 1.2z"/><path d="m36 44.64c0.936 2.483 7e-3 6.852 0.96 9.84-0.68 0.467-0.643-1.001-0.72-1.44-0.375-2.145-0.191-5.696-0.24-8.4z"/><path d="m83.76 45.12c1.929 4.551 5.037 7.923 8.88 10.56-4.002-0.919-7.998-5.405-8.88-10.56z"/><path d="m29.28 45.36c0.25 4.09-1.118 8.642-0.72 13.68-0.862-0.773-0.528-2.25-0.48-3.36 0.13-3.018 0.979-7.036 1.2-10.32z"/><path d="m137.52 46.08c-0.32 0.856-1.483 0.574-2.16 0.72-1.959 0.422-4.182 1.275-6.479 1.44 0.671-0.896 2.024-0.693 3.12-0.96 1.66-0.406 3.22-1.104 5.52-1.2z"/><path d="m24.72 46.32c0.35 2.992-0.573 6.787-0.24 10.56-1.099-2.916 0.142-7.279 0.24-10.56z"/><path d="m40.8 46.8c0.604 1.876 0.833 4.127 0.96 6.48-0.935-1.546-0.666-4.294-0.96-6.48z"/><path d="m30.24 47.52c0.416 4.398-0.436 10.405 0.24 15.12-0.647-0.599-0.64-1.696-0.72-2.64-0.326-3.831 0.137-8.988 0.48-12.48z"/><path d="m39.6 47.52c1.198 4.882 0.931 11.229 2.64 15.6-0.778 0.332-0.99-1.504-1.2-2.4-0.911-3.893-1.083-8.532-1.44-13.2z"/><path d="m139.2 47.52c-2.256 1.504-6.327 1.192-8.88 2.4-0.305-0.848 1.437-0.667 2.641-0.96 1.93-0.469 4.39-1.219 6.24-1.44z"/><path d="m105.84 48.48c6e-3 -0.233 0.293-0.186 0.479-0.24 1.754 0.806 4.061 1.06 6.48 1.2 0.594-0.03 0.408 0.294 0 0.24-2.76 0.042-5.1-0.337-6.96-1.2z"/><path d="m103.68 48.72c4.115 1.404 8.839 2.201 13.68 2.88-4.651 0.57-9.677-0.563-13.2-1.92 0-0.477-0.66-0.305-0.48-0.96z"/><path d="m33.36 49.2c0.279-0.039 0.427 0.053 0.48 0.24-0.254 3.105 0.498 6.313 0.24 8.64-0.665-2.535-0.747-5.653-0.72-8.88z"/><path d="m42.48 49.2c0.895-0.095 0.101 1.499 0.72 1.68-0.547 0.685-0.801-0.943-0.72-1.68z"/><path d="m45.12 49.44c0.798-0.449 0.661 0.972 0.72 1.2 1 3.87 1.819 9.242 3.36 12.72-1.019-0.601-1.114-2.042-1.44-3.12-0.967-3.188-1.923-7.161-2.64-10.8z"/><path d="m48.72 49.2c0.802 0.397 0.786 1.614 0.96 2.64-0.897-0.303-0.498-1.902-0.96-2.64z"/><path d="m134.64 50.16h0.479c-0.263 0.818-1.376 0.561-1.92 0.72-4.24 1.24-9.176 3.562-14.88 3.6 0.131-0.724 1.187-0.605 1.681-0.72 1.195-0.277 2.37-0.12 4.079-0.48 3.35-0.705 6.81-2.601 10.56-3.12z"/><path d="m89.28 51.12c1.479 1.481 2.896 3.024 5.04 3.84-1.985-0.017-4.745-1.333-5.04-3.84z"/><path d="m101.52 51.6c1.662 1.26 3.171 1.366 5.52 1.68 1.069 1.891 5.563 0.357 6.24 2.64-0.454 0.426-1.585 0.175-2.399 0.24 0.149-0.57 1.477 0.037 1.68-0.48-2.595-1.006-6.268-0.933-9.12-1.68-0.22-1.223-1.65-1.234-1.92-2.4z"/><path d="m134.64 51.6c0.594-0.031 0.408 0.293 0 0.24-5.611 1.989-11.128 4.072-18.72 4.08 3.169-0.758 6.562-1.198 9.84-1.92 3.111-0.686 5.914-1.694 8.64-2.4h0.24z"/><path d="m44.16 53.52c0.775-0.23 0.938 1.999 1.2 3.12 0.312 1.339 0.601 2.825 0.96 3.84-0.914-0.692-0.89-2.146-1.2-3.36-0.311-1.219-0.677-2.474-0.96-3.6z"/><path d="m43.2 54c0.213 0.106 0.429 0.211 0.48 0.48 0.06 4.101 1.907 6.413 2.4 10.08-1.5-2.98-2.517-6.444-2.88-10.56z"/><path d="m41.52 54.72c0.279-0.039 0.427 0.053 0.48 0.24 0.349 3.571 1.032 6.808 1.92 9.84-1.22-0.875-1.143-2.753-1.44-4.32-0.376-1.983-0.787-3.897-0.96-5.76z"/><path d="m48.24 54.72c1.07 3.169 1.86 6.62 3.12 9.6-1.093-0.893-1.478-2.578-1.92-4.08-0.521-1.769-1.075-3.307-1.2-5.52z"/><path d="m50.4 54.96c0.899 0.941 1.189 2.491 1.44 4.08-0.657-1.184-1.152-2.527-1.44-4.08z"/><path d="m77.76 55.44c1.195 1.444 2.392 2.888 3.359 4.56-1.433-1.206-2.639-2.641-3.359-4.56z"/><path d="m38.4 57.36c0.379-0.049 0.268 2.445 0.72 3.12-1.184-0.096-0.561-1.999-0.72-3.12z"/><path d="m89.76 57.84c3.586 1.294 6.335 3.425 10.56 4.08-0.493 0.881-1.251 0.015-2.399 0.24 0.725 4.666 2.871 9.086 2.159 14.399-0.131 0.35 0.281 1.241-0.239 1.2v-1.439c0.238-5.679-1.597-9.284-2.16-14.16-2.558-1.123-5.171-2.189-7.68-3.36-0.187-0.214-0.259-0.542-0.241-0.96z"/><path d="m24.96 60.48c0.796 0.084 0.376 1.383 0.48 2.16-0.379-0.501-0.498-1.262-0.48-2.16z"/><path d="m112.8 62.88c1.208 2.231 1.492 6.557 1.2 8.88-0.42-2.936-0.76-5.958-1.2-8.88z"/><path d="m108.24 63.12c1.359 4.283 0.638 12.516 0.48 16.8-0.63-6.264 0.38-10.475-0.48-16.8z"/><path d="m101.28 64.08c1.195 2.565 1.69 5.83 1.92 9.36-0.81-2.954-1.21-6.31-1.92-9.36z"/><path d="m96.48 65.52c1.397 1.243 1.301 3.979 1.44 6.48-0.657-1.983-0.619-4.661-1.44-6.48z"/><path d="m26.16 66.48c0.773-0.757 0.659 1.41 1.2 1.68-0.689 0.673-0.659-1.41-1.2-1.68z"/><path d="m110.16 66.72c0.839 2.915 0.722 8.719 0.24 12.72-0.12-4.278-0.06-8.055-0.24-12.72z"/><path d="m103.68 66.96c1.116 0.963 0.888 3.272 0.96 5.28-0.56-1.515-0.56-3.601-0.96-5.28z"/><path d="m104.88 68.4c0.88 0.56 0.59 2.29 0.72 3.6-0.75-0.689-0.32-2.558-0.72-3.6z"/><path d="m30.24 69.84c1.712 3.168 2.587 7.174 4.8 9.84-0.838 0.224-1.324-1.063-1.68-1.68-1.264-2.19-2.388-5.4-3.12-8.16z"/><path d="m50.64 70.8c0.176-0.427 0.436-0.034 0.72 0 1.322 3.479 3.149 6.451 4.8 9.601-0.846 0.045-1.299-1.21-1.68-1.92-1.218-2.274-2.353-5.526-3.84-7.681z"/><path d="m37.68 72c1.02 2.26 2.252 4.308 3.12 6.72-1.734-1.546-2.357-4.203-3.12-6.72z"/><path d="m39.6 72c0.874-0.154 0.296 1.144 0.96 1.2-0.364 0.579-1.043-0.538-0.96-1.2z"/><path d="m65.28 74.4c1.402 1.717 2.884 3.356 3.84 5.52-1.453-1.667-2.855-3.385-3.84-5.52z"/><path d="m40.56 75.12c1.028-0.619 0.898 1.976 1.68 2.399-0.923 0.515-0.955-1.917-1.68-2.399z"/><path d="m48.72 75.12c0.928-0.037 1.556 1.44 2.16 2.399 0.641 1.018 1.333 2.121 1.68 3.12-1.573-1.546-2.429-3.81-3.84-5.519z"/><path d="m62.88 74.88c1.712 2.288 3.467 4.533 4.8 7.2-1.797-2.203-3.591-4.409-4.8-7.2z"/><path d="m52.08 78c0.501-0.64 1.066 0.678 1.2 1.2-0.94 0.14-0.613-0.987-1.2-1.2z"/><path d="m94.56 77.76c0.48 1.003 0.267 2.806 0 1.44-0.071-0.365-0.461-0.711 0-1.44z"/><path d="m36.24 78h0.48c1.498 0.582 1.898 2.262 2.4 3.84-0.89-1.35-2.493-1.987-2.88-3.84z"/><path d="m95.76 78.96c0.684 2.366-0.5 4.938-0.48 7.44-0.67-2.352 0.621-4.818 0.48-7.44z"/><path d="m96.96 79.2c1.099 3.754-0.567 8.645-0.96 12.479-0.199-3.719 1.334-7.784 0.96-12.479z"/><path d="m105.6 80.4c0.082-0.397 0.807 1.815 0.72-0.24 0.39 2.472-1.396 4.843-1.68 7.439-0.33-2.091 0.98-4.613 0.96-7.199z"/><path d="m103.2 80.88c0.279-0.039 0.428 0.053 0.48 0.24-0.012 3.108-0.811 5.43-1.2 8.16-0.57-2.654 0.94-5.297 0.72-8.4z"/><path d="m98.64 81.36c0.619 0.481 0.314 1.851 0.24 2.64-0.175 1.842-0.795 3.969-0.96 5.52-0.453-2.455 0.862-5.216 0.72-8.16z"/><path d="m87.84 83.52c0.387 1.034 0.553 3.908-0.48 4.32 0.592-1.008-0.09-3.29 0.48-4.32z"/><path d="m89.52 83.76c0.71 0.421-0.139 1.279 0 1.92-0.71-0.42 0.139-1.279 0-1.92z"/><path d="m87.36 89.28c0.527 0.777-0.427 2.125-0.24 3.359-0.281-0.038-0.202-0.438-0.239-0.72-2.79 0.849-3.124 6.15-0.24 7.2 0.036 2.844 2.781 2.979 3.36 5.28-3.728-1.979-7.515-6.371-5.761-12.24 0.854-0.373 0.146 0.815 0.721 0.72 0.547-0.652 0.731-1.668 0.96-2.64 0.376 0.103 0.205 0.755 0.96 0.479 0.538-0.1 5e-3 -1.273 0.479-1.439z"/><path d="m75.12 89.76c-0.427 5.229 1.368 9.448 4.32 12-0.31-1.772-2.58-3.658-2.64-6.479 1.911 4.409 4.694 7.946 8.88 10.08-1.623 0.419-3.248-1.229-4.32-2.16-0.408-0.089-0.453 0.187-0.479 0.479-3.988-2.52-7.266-7.398-5.761-13.92z"/><path d="m93.6 90h0.96v1.44c-0.178 0.382-1.175-0.056-0.96 0.72-0.689-0.474 0.083-1.498 0-2.16z"/><path d="m97.44 90c1.017 0.405-0.366 2.274-0.24 3.36-0.684-0.935 0.402-2.149 0.24-3.36z"/><path d="m51.36 92.16c0.693 0.107 0.567 1.032 1.2 1.2-0.501 0.639-1.066-0.678-1.2-1.2z"/><path d="m65.52 95.28c1.188-0.303 1.986 1.851 3.36 2.16 0.216 0.424 0.58 0.7 0.72 1.199 1.493 0.907 3.299 1.501 4.32 2.88-3.61-1.27-5.794-3.966-8.4-6.24z"/><path d="m89.76 105.12c0.863 0.062 0.929 1.776 0.479 2.399-0.744-0.18-0.967-1.74-0.479-2.4z"/><path d="m27.6 5.04c5.429 5.094 10.863 10.674 15.84 15.84 0.716 0.744 1.47 1.862 2.64 1.92 0.431-4.652 0.641-9.716-2.16-12-0.852-0.694-2.509-0.843-4.08-1.44-3.942-1.499-9.359-3.7-12.24-5.28zm6 8.88c0.137-1.676-0.539-2.045-1.92-1.68-1.052 1.511 0.88 2.982 1.92 1.68zm-7.92 6.96c0.938 1.972 3.809 4.577 6 5.04 2.439 0.516 5.075-0.45 6.48-0.72 1.945-0.374 4.727 0.135 5.52-1.44-4.516-1.084-9.07-2.13-13.68-3.12-0.766-0.206-0.742 0.377-1.2 0.48-0.762-1.718-3.592-1.368-5.52-1.92 0.167 1.193 1.189 1.53 2.4 1.68zm54.96 91.678c1.338-1.781 3.367-2.872 4.08-5.279-2.998-0.603-5.288-1.913-7.2-3.601-5.464 1.333-12.801 0.567-17.76-0.72-1.285 1.596-1.2252 5.2211-2.8802 6.4451l-0.47976-2.3651c-0.776 0.185-1.256 0.664-1.44 1.44 1.525 0.078 1.455 3.019 3.36 1.92-0.661-0.22-1.32-0.44-1.44-1.2 1.635-0.543 3.086 1.035 3.6 2.399-3.4229-2.122 1.0926 1.667-1.44 0.72-0.634 1.126-0.493 3.027-0.96 4.319-0.728-1.834 0.354-3.541 0.96-4.8-1.24 5e-3 -1.232-0.529-2.64-0.72-0.855 1.385-0.87 3.61-1.2 5.52-0.348-0.904-1.429-1.222-1.68-0.96 1.078-1.481 1.77-3.35 1.68-6-1.55 0.61-1.981 2.34-2.88 3.601 0.485 0.474 0.785 2.172-0.48 2.16v1.68c1.805 0.021 2.428 0.836 3.6-0.24 0.209 0.352 0.359 0.761 0.96 0.72-0.01323 1.0794-0.53398 3.5534-0.72 2.883-0.502-0.699-0.606-1.794-0.96-2.641h-1.44c-0.93 0.696 1.062 1.153 0.24 1.68-3.731-0.167-3.125-7.227-0.72-9.119-0.753-0.928-2.5168 0.2181-3.6688-0.3089-0.352 2.573-2.9082 3.8199-1.3712 6.3089 0.965-0.166 1.37 0.229 2.16 0.239 0.221 0.941-1.266 0.175-1.44 0.721-0.033 1.073 1.158 0.922 1.92 1.199-0.884 1.687-2.641-0.277-3.6-0.72-0.258-0.409-0.026-0.773-0.24-1.439-0.088-0.275-0.707-0.857-0.72-0.96-0.172-1.328 0.747-4.568 1.68-5.761 1.023-1.306 4.893-2.177 7.2-2.16 0.8-1.52 1.486-3.153 1.92-5.039-3.235-1.565-6.71-2.891-10.08-4.32-6.51-4.349-11.956-8.724-16.32-15.36-0.522-0.794-1.403-1.562-1.92-2.399-2.949-4.785-4.618-10.975-6.72-16.561 0.393-1.965-0.339-4.164-0.48-6-0.878-11.401 2.472-22.164 7.2-28.56 0.123-1.643-0.426-2.614-0.24-4.32-2.498-2.703-5.742-4.658-8.4-7.2 0.251-0.663 2.101-0.207 3.12 0 2.778 0.565 6.721 2.226 9.6 2.16-0.415-1.745-1.788-2.532-2.64-3.84-1.183-0.32-2.202-1.168-3.36-1.68-1.085-0.479-2.669-0.459-3.12-1.68 2.328-0.788 4.602 0.286 6.48 0.72-0.074-1.281-1.022-2.481-1.68-3.84-1.036-2.14-1.8-4.563-3.12-6.48 2.135-0.783 3.305 0.754 4.8 1.44 0.848 0.389 2.253 0.452 3.6 0.96 1.209 0.457 2.267 1.509 3.36 1.44 1.589-0.101 3.36-2.174 5.28-2.88 6.097-2.24 14.237-0.948 19.44 2.4 3.297-0.739 5.854-1.44 10.08-1.2 18.17 1.034 32.25 10.909 39.6 22.8 1.438-0.157 1.499 1.061 2.881 0.96-3.48 0.167-8.729-0.465-12 0 2.315-0.809 5.131-0.98 7.439-1.2-6.72-11.08-19.832-20.292-36.72-21.36-3.667-0.232-6.721 0.194-10.08 0.72 2.202 2.675 5.813 5.321 6.96 9.6 0.243 0.907 0.926 2.037-0.24 2.64-0.491-0.75-1.187-1.19-0.48-1.92-2.398-6.234-8.143-12.329-16.32-13.2-5.332-0.568-10.758 0.341-13.68 3.36 1.233 1.275 3.177 0.846 4.56 1.68 1.37 0.826 1.709 2.449 2.88 3.36 0.435 3.116 2.308 10.173-0.96 12.24-1.202 0.76-5.771 1.41-7.68 1.68-1.563 0.221-3.38-0.222-4.8 0.72-0.543-1.057-2.518-0.682-3.36-1.44-0.19 3.271 0.912 6.884 2.4 9.36 0.743 1.236 2.595 2.076 1.92 3.36-0.917 0.193-1.536-0.907-1.92-1.44-1.184-1.643-1.874-4.268-3.12-6.24-1.523 1.342-2.55 3.61-3.36 5.76-1.123 2.979-1.531 5.71-2.4 9.36-2.181 9.152 0.134 21.634 3.36 27.6 1.415 2.616 3.086 5.337 4.8 7.92 0.489 0.738 0.573 1.605 1.2 2.641 0.858 1.416 2.248 2.888 3.36 4.08 1.184 1.269 2.498 2.721 4.08 3.12 0.044-0.204-0.093-0.227-0.24-0.24 2.226 1.694 4.665 5.253 8.64 5.999 0.292-0.779-1.627-1.406-2.4-1.92 1.964-0.458 3.299 2.591 4.8 3.6 2.83 0.771 4.935 2.266 8.16 2.64 0.505 0.216 0.774 0.666 1.2 0.961 1.835-0.413 3.725 0.17 5.52 0.479 0.298-1.088-2.008-1.46-2.16-2.88 1.908 0.732 2.14 3.14 5.04 2.88-1.386-1.414-2.92-2.68-4.32-4.08-1.36-1.36-2.812-2.628-4.08-4.08 0.886-0.147 1.296 1.034 1.92 1.681 0.609 0.63 1.397 1.257 2.16 1.92 2.342 2.035 4.336 5.424 8.64 4.56-3.643-2.197-6.836-4.845-9.84-7.68 1.84 0.336 3.326 2.469 5.04 3.84 0.887 0.709 1.961 1.288 2.88 1.92 0.905 0.622 1.878 1.193 2.64 1.92h2.88c0.256-1.169-1.162-1.895-1.68-2.88-0.322-0.613-0.336-1.36-0.72-1.92-1.29-1.882-3.718-2.743-4.8-4.561 1.529 0.712 2.155 2.325 3.84 2.881 0.994-0.538-0.02-2.514-0.96-2.641 0.217-0.655 0.537 0.73 0.96 0 0.239-1.438-0.471-1.929-1.2-2.399 0.023-0.457 0.937 0.148 0.96 0.479 1.278-0.642 0.484-3.355 2.16-3.6-3.171 9.436 2.7 16.996 10.8 18.239 0.098 0.579-0.438 0.522-0.24 1.2 0.779 0.14 1.116-0.163 1.68-0.24 0.766-0.708-1.245-0.971-0.479-1.68 0.779 0.27 1.396 0.843 0.96 1.68 0.678 0.199 0.622-0.338 1.2-0.239-0.815 1.105-1.728 2.112-3.601 2.16 0.455 0.998-0.103 0.319-0.239 0.479-0.69 0.805-1.82 2.065-3.36 2.4 0.417 0.622 1.088 0.991 1.439 1.68-0.53 1.39 0.269 4.108-1.199 4.56-0.754-1.241 0.432-2.602 0.239-4.079-1.855 0.064-2.216 1.623-3.84 1.92 0.158 1.522-0.814 3.36 0.24 4.319 2.217 0.034 2.361-0.785 3.6-1.92 0.379 0.613 0.379 2.507 0 3.12-0.996-0.289-2.594-1.237-3.84-0.479 0.292 1.068 1.827 0.894 2.88 1.199-1.17 1.852-3.002 0.451-3.6-0.72-0.411-0.806 0.499-0.207 0.48-0.96-0.012-0.482-0.854-1.115-0.96-1.68-0.466-2.491 1.277-3.945 2.88-5.28-4.384-0.533-6.704 1.97-5.76 6 0.562 0.705 1.908 0.256 2.4 0.48 0.196 1.076-1.812-0.052-1.68 0.96-0.376 1.256 1.607 0.152 1.44 1.199-1.148 1.106-2.017-0.194-2.16-1.439-5.0375 0.69412-2.4827-3.3355-2.2484-4.6282 5.6677-4.9385 4.9204-3.9508 8.7284-4.0128z"/><path d="m62.16 30.96c-1.073-0.927-1.126-2.874-1.92-4.08 1.039 0.961 1.475 2.525 1.92 4.08z"/><path d="m89.52 56.4c-4.231-1.929-7.069-7.331-8.16-13.2-0.424 6.425 3.544 10.536 6.72 14.16-4.143-2.817-8.089-7.911-7.68-16.08 0.442-0.594 0.842 0.909 1.2-0.24-0.501-1.329-1.269 0.416-1.68-1.92 1.668-0.411 1.063-3.097 1.92-4.32 0.117-0.757-0.433-0.847-0.24-1.68 0.281 0.039 0.202 0.438 0.24 0.72 0.481 0.082 0.751-0.049 0.72-0.48 0.492 1.377-1.17 2.667-0.96 4.56 0.633 0.286 0.619-1.154 0.72 0-1.537 8.237 2.767 14.629 7.2 18.48z"/><path d="m133.68 38.16c-1.96-2.843-5.505 0.63-8.16-0.24 2.651-0.504 6.954-2.702 9.12-0.72-0.598 3.243-4.894 2.786-7.68 3.84 1.73-1.475 5.71-0.688 6.72-2.88z"/><path d="m28.8 36.72c0.441 0.226-0.37 1.21-0.24 1.92-0.67-0.455 0.044-1.536 0.24-1.92z"/><path d="m84.72 38.4c-0.453 4.853 0.897 7.902 3.359 9.84-1.925-0.596-4.585-3.866-4.079-8.16 0.062-0.529-9e-3 -1.586 0.72-1.68z"/><path d="m113.04 42c-1.035-1.685-3.847-1.592-6-2.16 2.463-0.3 6.632-0.232 6.721 2.64-0.527 0.513-1.891 0.19-2.16 0.96 0.705 0.495 2.126 0.274 2.64 0.96-0.071 0.489-0.48 0.639-0.72 0.96 0.688 0.291 2.141 1.22 0.96 1.92 1.1 1.221 4.171 0.469 4.56 2.4-0.339 1.247-1.897 0.906-3.119 0.72 0.332-0.627 2.036 0.117 2.399-0.48-0.539-1.94-3.193-1.766-5.28-2.16-0.115-0.756 0.737-0.543 0.48-1.44-0.475-0.405-1.498-0.262-2.16-0.48 0.121-0.919 2.022-0.057 1.68-1.44-1.202-0.718-4.178 0.338-4.56-1.2 1.72-0.203 3.83-0.013 4.56-1.2z"/><path d="m32.64 41.04c-0.084 4.963-1.062 14.388 0 20.64-1.833-5.692-0.799-14.641 0-20.64z"/><path d="m145.68 47.28c-3.536 0.705-5.563 2.917-9.36 3.36 2.462-1.538 5.883-2.118 8.16-3.84 0.358 0.545 1.827-0.571 2.16 0 1.561-1.399 4.096-1.824 5.76-3.12 0.957-0.237 0.723 0.717 1.68 0.48 0.627-0.504 1.072-0.573 0.96-1.44-0.35-2.721-10.35 1.529-11.279 1.68 0.258-1.021 11.433-5.591 12.24-2.4 0.534 2.113-2.615 2.82-4.08 3.6-5.871 4.242-12.464 8.444-20.641 11.04-3.181 1.01-6.132 2.066-9.84 1.68 8.707-1.773 16.669-4.292 22.8-8.64-1.966-0.043-4.52 1.398-6 2.64-3.013 1.372-6.559 2.452-10.319 3.6-3.788 1.157-7.729 1.348-11.761 1.92-3.262 0.463-7.613 0.962-11.279 0.24-1.882-0.371-4.39 0.433-5.761-0.96 2.979-0.179 5.316 0.284 8.16 0.24-3.189-0.811-6.468-1.532-9.84-2.16-1.359-1.525-3.51-1.925-5.04-3.12-2.694-2.104-4.524-5.14-5.52-8.88 0.723 0.498 1.04 1.434 1.439 2.16 2.044 3.71 5.207 7.433 9.12 8.88 0.554 0.205 1.263 0.617 1.68 0.72 0.642 0.158 1.217-0.107 1.92 0 2.701 0.412 5.649 1.972 9.12 1.92-0.332 0.547-1.67 0.09-2.399 0.24 0.482 0.717 2.073 0.326 2.399 1.2 9.861-1.087 19.685-3.262 27.12-6 2.51-1.968 6.55-2.409 8.4-5.04zm0.24 0.96c2.274-0.365 3.484-1.795 5.04-2.88-2.01 0.631-4.03 1.248-5.04 2.88z"/><path d="m28.56 41.76c-0.195 5.492-1.678 10.661-1.2 17.28-0.897-0.251-0.463-1.566-0.48-2.16-0.146-5.106 1.054-10.531 1.68-15.12z"/><path d="m122.16 52.08c0.467-0.57 4.053 0.326 4.32-1.2-0.333-0.547-1.671-0.089-2.4-0.24-0.041-1.321 2.218-0.343 2.4-1.44-0.622-1.69-3.029-0.55-4.8-0.72 1.659-0.926 4.719-0.821 5.76 0.48-0.933 1.101-0.327 1.083 0 2.4-1.21 0.668-3.81 1.103-5.28 0.72z"/><path d="m37.68 48.48c-0.336-0.288-0.021-0.094 0.24 0 0.108 2.132 0.193 4.287 0.48 6.24-1.212-1.108-0.536-4.104-0.72-6.24z"/><path d="m93.36 48.96c0.934 0.592 1.218 1.756 2.16 2.4 1.545 1.057 3.804 1.437 5.52 2.4v0.48c0.594-0.031 0.408 0.293 0 0.24-3.041-1.199-7.334-2.425-7.68-5.52z"/><path d="m79.2 49.92c1.403 2.517 3.265 4.575 4.8 6.96-1.789-2.132-3.767-4.073-4.8-6.96z"/><path d="m79.44 54.96c0.932-0.206 1.729 1.787 2.16 2.88-0.853-0.827-1.225-2.135-2.16-2.88z"/><path d="m90.96 56.16c1.421 0.899 2.925 1.714 4.56 2.4 0.948-0.077-0.178-0.743 0.48-0.96 3.042 0.105 6.085 2.266 9.359 2.4 0.708 0.029 1.247-0.293 1.92-0.24 0.675 0.054 1.255 0.474 1.92 0.48 3.26 0.03 6.608-1.292 10.08-1.44-6.938 2.384-15.78 1.983-22.56-0.24 1.294 1.509 3.908 1.265 5.52 1.92-2.901 0.09-7.734-0.955-10.08-2.64-0.558-0.401-1.118-1.033-1.2-1.68z"/><path d="m75.84 57.12c0.898 0.066 1.831 2.166 2.4 3.36-1.01-0.91-1.667-2.173-2.4-3.36z"/><path d="m114.96 76.08c-1.434 7e-3 -0.832 2.048-1.921 2.4 1.443 2.956 3.113 5.687 4.08 9.119 1.004 0.437 0.969 1.912 1.92 2.4-0.176 0.428-0.436 0.034-0.72 0 0.143 0.817 0.921 0.999 1.681 1.2-0.222-2.15-1.846-3.957-2.881-6-1.046-2.066-2.248-4.177-2.64-6.72 3.021 4.179 3.644 10.756 8.4 13.199 0.311-0.719-0.703-2.17-0.721-3.359 1.654 0.053 1.807 2.418 1.681 4.08-0.702 0.526-1.45-0.505-2.4-0.48-0.703 0.203 0.144 0.772 0 1.2-0.878 0.157-0.921-0.52-1.68-0.48-1.335 0.875-2.564 1.416-3.84 0.96-1.488-0.531-1.463-2.338-2.641-3.119-0.711 0.349 0.316 0.936 0 1.68-0.489-0.07-0.471-0.649-0.96-0.72-0.036 1.315 1.21 1.35 1.92 1.92-0.593 1.152-1.939-0.236-2.64-0.48-0.514-2.384-1.937-5.079-2.16-6.96 0.787 0.493 0.916 1.644 1.44 2.4 0.68-1.01-0.281-2.432-0.721-3.12 1.108-0.256 1.003 1.454 1.44 2.399 0.499 1.08 1.125 2.062 1.68 2.641-0.337-2.868-2.292-4.556-2.16-7.2-1.275-0.046-1.214 0.712-0.96 1.68-0.943-0.821-1.703 1.247-2.399 2.16-0.625 0.818-1.497 1.364-1.681 2.16-2.352 2.401-5.423 5.052-8.64 7.2-1.004 0.671-2.097 1.103-3.12 1.68-2.009 1.133-4.104 3.041-6.72 2.64 0.02-0.38-0.115-0.915 0.24-0.96-0.14-0.965 0.71 0.12 1.439-0.239 0.783-0.178 0.722-1.198 0.96-1.92 0.556-0.55-0.081 0.748 0 1.199 3.696-1.344 6.572-3.508 9.601-5.52 0.526-3.153 0.8-6.56 1.439-9.601 0.521 2.843-0.853 5.866-0.96 8.881 1.269-0.252 1.827-1.214 1.681-2.881 0.325 0.075 0.198 0.602 0.239 0.961 1.156-0.205 1.899-0.821 1.92-2.16h0.96c0.976-1.905 3.088-2.673 3.36-5.28 0.502 0.102 0.636-0.164 0.96-0.24 1.495-3.465 4.614-5.306 4.32-10.56 0.33-0.764 0.237 0.848 0.24 1.2 2.419-1.626 1.431-8.912 0.72-11.521-1.637 0.062-2.669-0.085-3.601 0.24 1.158 3.885 1.866 9.22 1.2 14.16-0.237-4.018-0.234-10.052-1.68-14.16-1.993 0.057-2.623 0.113-4.561 0 1.24 4.65 1.495 10.956 0.721 16.32-0.099-5.309 0.228-12.134-1.2-16.8 5.96 0.106 11.302-1.639 16.32-1.68-1.076 0.444-2.602 0.439-3.36 1.2-0.242 4.158-1.249 7.551-2.4 10.8 1.3 3.26 3.157 5.963 4.801 8.88 0.03 0.431-0.294 0.506-0.24 0.96 0.961 1.52 1.994 2.966 2.88 4.561 0.679 0.761 1.87 1.009 1.92 2.399 0.651 0.172-0.172-1.132 0.48-0.96-1.671-4.01-4.819-6.541-6.24-10.8 0.936-0.602 0.739 0.869 0.96 1.2 1.396 2.091 3.117 4.151 4.8 6.72 1.129 1.724 2.249 2.495 1.44 5.28-0.61 0.431-1.337 0.743-2.16 0.96 0.198-0.602 0.841-0.76 1.2-1.2-2.855-1.865-4.174-5.267-6.24-7.92 0.633 1.927 1.758 3.362 2.399 5.28-0.016 1.178-0.548-0.544-0.96 0.239-0.252 0.986 1.217 1.485 0.721 1.92-2.919-2.921-3.984-7.695-6.48-11.039 0.064-0.864-0.443-1.157-0.479-1.921v-0.478zm1.44 2.4c0.724-0.777 0.817 0.219 1.44-0.24-1.331-1.069-1-3.801-2.16-5.04-1.35 1.744-0.31 3.948 0.72 5.28zm-0.24-10.32c0.676-1.723 1.27-5.401-0.239-6.72h-0.48c0.34 2.141-0.17 5.13 0.72 6.72zm0.24 20.88c-0.264-2.696-2.105-3.814-2.88-6 0.352-0.557 0.761 0.469 0.72-0.48-0.492-0.947-0.821-2.059-1.2-3.119-1.237 0.442-1.412 1.946-2.159 2.88 2.381 2.466 2.955 5.39 4.8 8.16-1.655-0.266-1.144-2.697-2.641-3.12 0.146 1.534 1.068 2.292 1.44 3.6 1.178-7e-3 1.753 1.249 3.6 1.2-0.151-1.528-0.898-2.461-2.159-2.88-1.366-2.155-3.337-4.982-3.601-7.44 1.55 2.211 2.13 5.391 4.08 7.199zm4.56-2.64c-0.741-2.14-1.951-3.81-3.12-5.521 0.73 2.148 1.84 3.918 3.12 5.521z"/><path d="m101.76 72.72c-0.756-0.435-0.592-1.508-0.721-2.16-0.365-1.856-1.102-4.492-1.199-6.72-0.091-2.062 0.742 2.558 0.96 3.6 0.36 1.722 0.78 3.666 0.96 5.28z"/><path d="m28.32 68.88c0.483 0.717 0.707 1.694 0.72 2.88-0.261-0.059-0.163-0.477-0.48-0.48-0.727 0.293 0.169 0.917 0.24 1.201 0.244-0.156 0.249-0.553 0.72-0.48 0.924 3.156 2.259 5.9 3.6 8.64-0.573-0.656-0.928-0.998-1.68-0.96-1.189-1.931-1.536-4.704-3.36-6 1.481-0.517-1.809-3.577 0.24-4.801z"/><path d="m35.52 69.36c0.646 0.923 0.536 1.971 0.96 3.121 0.868 2.354 2.869 5.01 3.12 6.72 0.038 0.26-0.308 0.143-0.24 0-1.608-2.953-3.381-5.74-3.84-9.841z"/><path d="m46.32 73.44c1.231 2.368 2.364 4.836 3.84 6.96-0.756-0.012-1.419-1.262-1.92-2.16-0.76-1.362-1.551-2.917-1.92-4.8z"/><path d="m54.24 74.88c2.026 2.454 2.923 6.037 5.04 8.4-0.958 0.31-1.094-1.126-1.44-1.681-1.217-1.948-2.843-4.283-3.6-6.719z"/><path d="m45.36 75.12c1.166 1.714 2.187 3.573 3.12 5.52-1.307-1.574-2.354-3.406-3.12-5.52z"/><path d="m42.72 75.84c1.261 0.819 1.016 3.145 2.16 4.08 0.461 1.877-0.831-0.801-1.44-2.16-0.335-0.748-0.59-1.458-0.72-1.92z"/><path d="m46.8 80.4c-0.992 0.027-1.606-2.391-2.16-3.601 0.91 1.011 1.206 2.636 2.16 3.601z"/><path d="m58.56 76.8c0.357 0.763 1.156 1.084 1.2 2.16-0.586-0.534-1.07-1.17-1.2-2.16z"/><path d="m58.08 78.48c0.817 0.702 1.151 1.889 1.68 2.88-0.757-0.763-1.322-1.718-1.68-2.88z"/><path d="m32.88 82.08c-0.233-7e-3 -0.186-0.294-0.24-0.48 2.579 2.541 4.426 5.814 6.72 8.641 0.269 0.498 0.259 0.508-0.24 0.24-1.875-3.005-4.538-5.223-6.24-8.401z"/><path d="m100.08 82.8c0.271 3.071-0.988 6.69-1.439 9.84-0.115-2.915 1.092-6.586 1.439-9.84z"/><path d="m67.2 94.32c2.143 1.857 4.297 3.702 6.24 5.76-2.19-1.809-4.906-3.094-6.24-5.76z"/><path d="m56.16 95.04c1.01 0.43 1.327 1.554 2.16 2.16-0.543 0.055-1.816-1.219-2.16-2.16z"/><path d="m58.32 95.28c0.338-0.431 1.39 0.562 1.92 1.2 0.284 0.341 1.257 1.588 0.48 1.439-0.764-0.915-1.486-1.873-2.4-2.639z"/><path d="m89.28 95.04c-0.06 1.46-0.779 2.261-0.96 3.6-0.268-0.546 0.252-3.002 0.96-3.6z"/></g></svg>